<svg width="20" height="23" viewBox="0 0 20 23" fill="none" xmlns="http://www.w3.org/2000/svg">
<g clip-path="url(#clip0_15_544)">
<path d="M14.8219 8.15771C16.2811 9.20029 18.0687 9.81373 19.9994 9.81373V6.10045C19.634 6.10053 19.2696 6.0624 18.9121 5.9867V8.90959C16.9815 8.90959 15.1941 8.29623 13.7346 7.25373V14.8315C13.7346 18.6224 10.6599 21.6952 6.8674 21.6952C5.45232 21.6952 4.13701 21.2676 3.04443 20.5343C4.29146 21.8087 6.03053 22.5993 7.95443 22.5993C11.7472 22.5993 14.822 19.5265 14.822 15.7354V8.15771H14.8219ZM16.1633 4.41147C15.4175 3.59717 14.9278 2.54482 14.8219 1.38139V0.903809H13.7915C14.0508 2.38248 14.9356 3.64576 16.1633 4.41147ZM5.44318 17.6254C5.02653 17.0794 4.80131 16.4114 4.80232 15.7246C4.80232 13.9908 6.20865 12.5851 7.94373 12.5851C8.26703 12.5849 8.58842 12.6345 8.89662 12.7322V8.93584C8.53646 8.88654 8.17303 8.86553 7.80975 8.87326V11.8281C7.50141 11.7304 7.17984 11.6808 6.85639 11.6811C5.12139 11.6811 3.71514 13.0867 3.71514 14.8207C3.71514 16.0468 4.41803 17.1083 5.44318 17.6254Z" fill="#FF004F"/>
<path d="M13.7345 7.25365C15.1941 8.29615 16.9814 8.90951 18.912 8.90951V5.98662C17.8343 5.75717 16.8804 5.19436 16.1631 4.41147C14.9354 3.64568 14.0508 2.3824 13.7914 0.903809H11.0849V15.7353C11.0787 17.4644 9.67481 18.8644 7.94349 18.8644C6.92333 18.8644 6.01692 18.3783 5.44294 17.6253C4.41794 17.1083 3.71497 16.0467 3.71497 14.8208C3.71497 13.0869 5.12122 11.6812 6.85622 11.6812C7.18864 11.6812 7.50903 11.7329 7.80958 11.8282V8.87334C4.08364 8.95029 1.08716 11.9931 1.08716 15.7354C1.08716 17.6035 1.83333 19.297 3.04442 20.5344C4.137 21.2676 5.45224 21.6954 6.86739 21.6954C10.66 21.6954 13.7346 18.6223 13.7346 14.8315V7.25373L13.7345 7.25365Z" fill="black"/>
<path d="M18.9121 5.98672V5.19656C17.9403 5.19803 16.9877 4.92603 16.1632 4.41164C16.893 5.21024 17.8541 5.76096 18.9121 5.98688V5.98672ZM13.7914 0.903906C13.7667 0.762626 13.7477 0.620399 13.7345 0.477578V0H9.9975V14.8316C9.99156 16.5605 8.58766 17.9605 6.85625 17.9605C6.36541 17.9613 5.88128 17.8465 5.44297 17.6256C6.01695 18.3785 6.92336 18.8645 7.94352 18.8645C9.67477 18.8645 11.0788 17.4646 11.0849 15.7355V0.903984H13.7914V0.903906ZM7.80984 8.87344V8.03211C7.49757 7.98942 7.18275 7.96807 6.86758 7.9682C3.07461 7.9682 0 11.0412 0 14.8316C0 17.2081 1.20836 19.3025 3.04461 20.5345C1.83352 19.2971 1.08734 17.6035 1.08734 15.7355C1.08734 11.9933 4.08375 8.95039 7.80984 8.87344Z" fill="#00F2EA"/>
</g>
<defs>
<clipPath id="clip0_15_544">
<rect width="20" height="22.6562" fill="white"/>
</clipPath>
</defs>
</svg>
