<svg width="65" height="65" viewBox="0 0 65 65" fill="none" xmlns="http://www.w3.org/2000/svg">
<g id="Group 103">
<circle id="Ellipse 6" cx="32.3077" cy="32.3077" r="31.2308" stroke="#F4002C" stroke-width="2.15385"/>
<path id="Vector" d="M45.231 20.4616L42.5387 20.4616C41.7983 20.4616 41.1925 21.0674 41.1925 21.8077L41.1925 33.9231C41.1925 34.6635 41.7983 35.2693 42.5387 35.2693L45.231 35.2693L45.231 20.4616ZM18.5367 30.0462C18.3887 30.3827 18.3079 30.7462 18.3079 31.1231L18.3079 32.577C18.3079 34.0577 19.5194 35.2693 21.0002 35.2693L28.404 35.2693L27.1656 41.5289C27.0983 41.825 27.1386 42.1481 27.2733 42.4174C27.5794 43.0236 27.9791 43.5779 28.4579 44.0597L29.0771 44.6924L37.706 36.0635C38.2175 35.552 38.5002 34.8654 38.5002 34.152L38.5002 23.5981C38.4966 22.765 38.1632 21.9673 37.5728 21.3794C36.9825 20.7916 36.1833 20.4616 35.3502 20.4616L24.4329 20.4616C23.4906 20.4616 22.6021 20.9597 22.1175 21.7673L18.5367 30.0462Z" fill="url(#paint0_linear_81_2105)"/>
</g>
<defs>
<linearGradient id="paint0_linear_81_2105" x1="31.7694" y1="44.6924" x2="31.7694" y2="20.4616" gradientUnits="userSpaceOnUse">
<stop stop-color="white"/>
<stop offset="1" stop-color="#F4002C"/>
</linearGradient>
</defs>
</svg>
