<svg width="65" height="65" viewBox="0 0 65 65" fill="none" xmlns="http://www.w3.org/2000/svg">
<g id="Group 102">
<circle id="Ellipse 6" cx="32.3077" cy="32.3077" r="31.2308" stroke="#00AFF0" stroke-width="2.15385"/>
<path id="Vector" d="M18.3076 44.6923H20.9999C21.7403 44.6923 22.3461 44.0866 22.3461 43.3462V31.2308C22.3461 30.4904 21.7403 29.8847 20.9999 29.8847H18.3076V44.6923ZM45.0018 35.1077C45.1499 34.7712 45.2307 34.4077 45.2307 34.0308V32.577C45.2307 31.0962 44.0192 29.8847 42.5384 29.8847H35.1345L36.373 23.625C36.4403 23.3289 36.3999 23.0058 36.2653 22.7366C35.9592 22.1303 35.5594 21.576 35.0807 21.0943L34.4615 20.4616L25.8326 29.0904C25.3211 29.602 25.0384 30.2885 25.0384 31.002V41.5558C25.0419 42.3889 25.3754 43.1867 25.9657 43.7745C26.5561 44.3623 27.3553 44.6924 28.1884 44.6923H39.1057C40.048 44.6923 40.9365 44.1943 41.4211 43.3866L45.0018 35.1077Z" fill="url(#paint0_linear_81_2100)"/>
</g>
<defs>
<linearGradient id="paint0_linear_81_2100" x1="31.7692" y1="20.4616" x2="31.7692" y2="44.6923" gradientUnits="userSpaceOnUse">
<stop stop-color="white"/>
<stop offset="1" stop-color="#00AFF0"/>
</linearGradient>
</defs>
</svg>
