<svg width="50" height="47" viewBox="0 0 50 47" fill="none" xmlns="http://www.w3.org/2000/svg">
<g clip-path="url(#clip0_101_376)">
<path d="M7.44142 20.9504C7.59499 20.841 7.62009 20.7922 7.56103 20.6117C7.39859 20.1221 7.20515 19.6413 7.13279 19.1206C6.95411 19.7108 6.87142 20.3099 6.83155 20.9164C6.82564 21.0007 6.8729 21.0407 6.94968 21.0495C7.12393 21.0732 7.2908 21.0584 7.44142 20.9504Z" fill="white"/>
<path d="M7.08051 28.674C7.12481 28.6991 7.15286 28.671 7.17354 28.6414C7.23999 28.5512 7.30053 28.4565 7.36698 28.3663C7.57667 28.0793 7.55304 28.1474 7.3847 27.8397C7.37436 27.8204 7.35664 27.8071 7.31087 27.7568C7.18387 27.9506 7.06574 28.1222 6.95794 28.2982C6.90478 28.3855 6.98895 28.6222 7.08051 28.674Z" fill="#CE4339"/>
<path d="M6.47648 25.6588C6.44547 25.5878 6.39674 25.5996 6.35687 25.6499C6.25645 25.7801 6.15013 25.9073 6.06301 26.0449C5.92273 26.2653 5.93454 26.3289 6.11765 26.5715C6.14423 26.5523 6.15899 26.5449 6.16638 26.5331C6.26531 26.3925 6.35244 26.2416 6.46614 26.1144C6.60642 25.9576 6.54145 25.8112 6.47648 25.6588Z" fill="#CE4339"/>
<path d="M7.56004 29.354C7.65159 29.2002 7.74167 29.0449 7.83174 28.891C7.86866 28.8274 7.87014 28.7638 7.83617 28.6987C7.79483 28.6203 7.7712 28.5316 7.67965 28.4487C7.56742 28.57 7.50688 28.7091 7.42566 28.8319C7.27947 29.0523 7.28685 29.1499 7.43895 29.354C7.48473 29.4147 7.52312 29.4147 7.56004 29.354Z" fill="#CE4339"/>
<path d="M6.74406 28.0405C6.77359 28.0316 6.79279 28.0316 6.80017 28.0212C6.86514 27.9384 6.92716 27.8541 6.99066 27.7698C7.23283 27.4443 7.23283 27.4443 7.04234 27.0923C7.03939 27.0863 7.03644 27.0789 7.03201 27.0716C6.9818 26.9858 6.94784 26.9843 6.89025 27.073C6.79131 27.2239 6.69976 27.3792 6.60525 27.5316C6.57719 27.5775 6.55652 27.6263 6.57867 27.681C6.62592 27.8067 6.66727 27.934 6.74406 28.0405Z" fill="#CE4339"/>
<path d="M30.7352 15.3395C30.6363 15.2597 30.5344 15.1813 30.4384 15.0999C30.3572 15.0304 30.2922 15.0481 30.2272 15.1221C30.1386 15.2227 30.0471 15.3233 29.9541 15.4209C29.263 16.1413 28.5069 16.7922 27.7627 17.4563C27.522 17.6708 27.5249 17.6723 27.7686 17.8646C27.9414 17.9992 27.9443 18.0022 28.0994 17.8469C28.5232 17.4208 28.975 17.0274 29.4372 16.6457C29.8655 16.2922 30.2686 15.912 30.6791 15.5378C30.7175 15.5037 30.7633 15.4727 30.7751 15.4224C30.778 15.381 30.7588 15.3588 30.7352 15.3395Z" fill="#CE4339"/>
<path d="M6.45038 27.2032C6.54636 27.0612 6.64382 26.9207 6.73685 26.7772C6.85646 26.5938 6.83431 26.4695 6.64677 26.2905C6.55374 26.4266 6.46219 26.5612 6.37064 26.6958C6.20968 26.9355 6.21116 26.9621 6.40017 27.2372C6.42675 27.2195 6.44299 27.2151 6.45038 27.2032Z" fill="#CE4339"/>
<path d="M24.5868 18.7762C24.6385 19.3013 24.7433 19.8176 24.9486 20.3043C25.1066 20.68 25.396 20.9211 25.7977 21.0039C26.0399 21.0542 26.2865 21.0749 26.5286 21.1223C26.6719 21.1504 26.7915 21.1282 26.9081 21.0409C27.1902 20.8294 27.4796 20.6267 27.7587 20.4122C27.9846 20.2392 28.2047 20.0572 28.4217 19.8723C28.5753 19.7421 28.5753 19.7288 28.4424 19.5913C28.3376 19.4833 28.2327 19.3753 28.1161 19.2821C27.3423 18.6638 26.5626 18.0558 25.6928 17.5736C25.3842 17.402 25.0771 17.2304 24.7581 17.0795C24.5706 16.9907 24.5455 17.007 24.541 17.2215C24.5381 17.3946 24.541 17.5676 24.541 17.7733C24.5218 18.0883 24.5529 18.433 24.5868 18.7762Z" fill="white"/>
<path d="M7.84707 29.9383C7.89284 29.9412 7.91056 29.9072 7.92976 29.8761C8.0095 29.7504 8.09219 29.6261 8.17046 29.4989C8.24281 29.3821 8.22805 29.2933 8.13059 29.2016C8.08186 29.1543 8.03313 29.1557 8.00359 29.2134C7.91647 29.3776 7.83082 29.5433 7.75256 29.7134C7.72007 29.7859 7.788 29.9294 7.84707 29.9383Z" fill="#CE4339"/>
<path d="M29.21 19.0436C29.2721 19.1072 29.3223 19.0954 29.3828 19.0436C29.7933 18.693 30.1034 18.2581 30.4209 17.8247C30.2747 17.8883 30.1728 18.0052 30.0591 18.1058C29.78 18.3528 29.5054 18.6058 29.2278 18.8557C29.1643 18.9134 29.1362 18.9696 29.21 19.0436Z" fill="#CE4339"/>
<path d="M31.5524 16.2877C31.6499 16.1088 31.6529 16.0866 31.4904 15.9505C31.4048 15.878 31.3177 15.8055 31.2305 15.736C31.0208 15.5674 31.0194 15.5674 30.8363 15.7552C30.3534 16.2478 29.8557 16.7241 29.3389 17.1812C29.0081 17.4741 28.6848 17.7759 28.3569 18.0732C28.2166 18.2004 28.2152 18.2182 28.3555 18.3276C28.4913 18.4341 28.6301 18.5347 28.7689 18.6368C28.7985 18.659 28.8324 18.6753 28.8546 18.6871C28.9358 18.69 28.9742 18.6398 29.017 18.5983C29.1794 18.443 29.3374 18.2833 29.5117 18.1398C29.9827 17.7463 30.4568 17.3543 30.9204 16.9519C31.1523 16.7522 31.4003 16.5673 31.5524 16.2877Z" fill="#CE4339"/>
<path d="M8.40179 29.6705C8.32353 29.6853 8.29104 29.7711 8.28809 29.8643C8.38112 29.8628 8.4579 29.8539 8.54946 29.8154C8.50516 29.7518 8.48448 29.6557 8.40179 29.6705Z" fill="#CE4339"/>
<path d="M44.7773 29.1603C44.8689 29.2239 44.9398 29.2061 45.018 29.1381C45.1701 29.005 45.3281 28.8777 45.4788 28.7446C45.7593 28.4961 46.0488 28.2565 46.3087 27.9872C46.3382 27.9562 46.384 27.9355 46.384 27.8778C46.3441 27.8068 46.2703 27.7654 46.2112 27.7091C46.0399 27.5464 46.034 27.5449 45.873 27.7121C45.5201 28.0819 45.1421 28.4221 44.7404 28.7372C44.4599 28.9576 44.4067 28.9029 44.7773 29.1603Z" fill="#CE4339"/>
<path d="M43.8259 28.4457C43.9249 28.5255 44.0253 28.6039 44.1272 28.6794C44.263 28.7785 44.2748 28.78 44.3959 28.6749C44.5658 28.5285 44.7326 28.3776 44.8965 28.2253C45.183 27.9619 45.4266 27.6528 45.7471 27.4265C45.8254 27.3702 45.8165 27.3229 45.7559 27.2652C45.6245 27.1439 45.4931 27.0211 45.3602 26.8998C45.3395 26.8806 45.31 26.8688 45.2864 26.8555C45.2155 26.8614 45.1771 26.9117 45.1357 26.9531C44.9453 27.1439 44.7592 27.3392 44.5643 27.5241C44.3192 27.7549 44.0666 27.9782 43.8186 28.2045C43.696 28.3184 43.696 28.3392 43.8259 28.4457Z" fill="#CE4339"/>
<path d="M44.2605 26.057C44.2975 26.0229 44.3462 25.9919 44.3403 25.9298C44.3344 25.8588 43.9696 25.5215 43.9017 25.5259C43.8412 25.5392 43.8042 25.5895 43.7614 25.631C43.3347 26.0422 42.8902 26.4342 42.4442 26.8232C42.3379 26.9164 42.1548 26.9993 42.1533 27.1146C42.1519 27.2552 42.3556 27.3114 42.4679 27.4031C42.6392 27.5421 42.6436 27.5362 42.7986 27.3927C42.8592 27.3365 42.9212 27.2833 42.9817 27.2271C43.41 26.838 43.8367 26.4475 44.2605 26.057Z" fill="#CE4339"/>
<path d="M43.2975 24.0703C44.34 24.9992 45.3412 25.9711 46.3025 26.9844C46.6229 27.3231 46.9153 27.6855 47.0733 28.1367C47.091 28.1885 47.1132 28.224 47.1708 28.2462C47.3155 28.3024 47.3214 28.3261 47.2121 28.4355C46.8843 28.7654 46.5712 29.1115 46.2109 29.4074C46.0839 29.5124 45.9584 29.6204 45.83 29.7225C45.7546 29.7831 45.7679 29.8275 45.8373 29.8807C45.9791 29.9887 46.019 29.9917 46.1696 29.8689C46.4251 29.6603 46.6761 29.4444 46.9478 29.2565C47.0216 29.2047 47.0955 29.153 47.1855 29.1337C47.2402 29.1219 47.2919 29.1308 47.3258 29.1796C47.3613 29.2299 47.3495 29.2831 47.3125 29.3246C47.2623 29.3808 47.2092 29.434 47.1516 29.4814C46.8976 29.6929 46.6421 29.9015 46.3704 30.0908C46.2405 30.181 46.2464 30.2017 46.363 30.3009C46.4428 30.3689 46.5078 30.3585 46.5816 30.2979C46.7617 30.15 46.9419 30.0035 47.1235 29.8586C47.1811 29.8127 47.2431 29.7387 47.317 29.8097C47.3952 29.8852 47.3391 29.9665 47.2845 30.0287C47.1959 30.1307 47.0955 30.221 47.0024 30.3186C46.9655 30.3571 46.8961 30.3822 46.9256 30.4739C47.2771 30.4636 47.6256 30.5272 47.977 30.5287C48.104 30.5287 48.2325 30.5198 48.358 30.5006C48.5411 30.4724 48.5515 30.4577 48.488 30.2801C48.2827 29.7136 48.1601 29.1263 48.0184 28.542C47.5916 26.7847 46.9951 25.0895 46.2021 23.4608C45.6661 22.3602 45.1138 21.2686 44.5349 20.1902C44.0949 19.3692 43.6371 18.5586 43.1867 17.745C43.1528 17.6829 43.1262 17.6104 43.045 17.5586C43.0199 17.6636 43.042 17.7509 43.0553 17.8367C43.1852 18.6917 43.2561 19.5511 43.2975 20.4135C43.3447 21.4032 43.2103 22.3765 43.0568 23.3484C42.9756 23.8498 42.9076 23.7241 43.2975 24.0703Z" fill="#1796D4"/>
<path d="M29.9895 14.782C29.8684 14.6948 29.7443 14.609 29.6218 14.5247C29.5538 14.4788 29.4948 14.4965 29.4416 14.5528C29.4106 14.5853 29.3796 14.6178 29.3501 14.6519C28.625 15.4625 27.8557 16.2288 27.0376 16.9462C26.7836 17.1696 26.7807 17.1666 27.076 17.3515C27.2384 17.4536 27.2429 17.4565 27.3758 17.319C27.7626 16.9196 28.1909 16.5675 28.6103 16.2051C29.0636 15.8131 29.4977 15.4004 29.9289 14.9832C29.9658 14.9477 30.0087 14.9152 30.0219 14.8708C30.0293 14.8249 30.0131 14.7983 29.9895 14.782Z" fill="#CE4339"/>
<path d="M42.9566 27.7805C43.0599 27.8559 43.1589 27.9358 43.2608 28.0112C43.438 28.1429 43.4409 28.1459 43.596 28.0024C43.9917 27.6355 44.3845 27.2657 44.7773 26.8974C44.8423 26.8352 44.9058 26.7716 44.9693 26.708C44.9959 26.6814 45.0195 26.6518 45.021 26.5956C45.0165 26.5645 44.9855 26.5305 44.9545 26.4995C44.8689 26.4151 44.7847 26.3293 44.6976 26.248C44.575 26.1326 44.572 26.1311 44.4465 26.2539C44.1379 26.5601 43.8278 26.8633 43.5 27.1503C43.3198 27.3086 43.1397 27.4669 42.9566 27.6207C42.8916 27.6769 42.8798 27.7243 42.9566 27.7805Z" fill="#CE4339"/>
<path d="M36.9136 10.59C36.2137 10.8326 35.6186 11.2438 35.0737 11.7379C34.8049 11.9819 34.5687 12.2556 34.4003 12.5781C34.1257 13.1047 33.8436 13.6269 33.6251 14.1801C33.3844 14.7896 33.1082 15.3827 32.7863 15.9508C32.1085 17.146 31.2757 18.2273 30.3144 19.2066C29.8418 19.6888 29.3575 20.1607 28.8451 20.6015C27.8926 21.4181 26.8959 22.1755 25.8342 22.847C25.0412 23.35 24.2083 23.7804 23.3726 24.2065C22.4629 24.6695 21.5666 25.1561 20.6289 25.56C19.7119 25.9549 18.8229 26.4076 17.9561 26.9031C16.7807 27.5762 15.716 28.4105 14.6469 29.2359C14.4269 29.406 14.2128 29.5835 14.0016 29.7625C13.944 29.8113 13.8643 29.8528 13.8613 29.9785C14.1847 29.9711 14.4963 30.0051 14.8079 30.0244C14.9408 30.0318 15.056 29.9977 15.1697 29.9282C16.004 29.4193 16.8043 28.8646 17.5205 28.1945C17.68 28.0451 17.8439 27.9031 18.0329 27.7922C18.2603 27.659 18.3622 27.6679 18.5512 27.8558C18.6502 27.9549 18.755 27.9712 18.879 27.9386C19.0031 27.9075 19.1183 27.8513 19.2334 27.7951C19.7591 27.5392 20.2848 27.2818 20.8105 27.0259C21.2432 26.8159 21.6936 26.6502 22.1632 26.5392C22.2296 26.523 22.3034 26.5082 22.3433 26.5836C22.3758 26.6458 22.3315 26.7005 22.2946 26.7463C22.175 26.8913 22.0391 27.0215 21.8959 27.1413C21.2521 27.6783 20.5226 28.0821 19.7842 28.4682C19.5908 28.5688 19.3855 28.6457 19.1685 28.6782C18.8303 28.7271 18.501 28.7167 18.2588 28.4297C18.1392 28.2877 18.1215 28.2936 17.9679 28.4046C17.931 28.4312 17.8956 28.4593 17.8601 28.4859C17.2089 28.9682 16.574 29.4726 15.8888 29.9075C15.8489 29.9326 15.7854 29.94 15.7854 30.017C15.8135 30.0214 15.8415 30.0288 15.8696 30.0303C16.3185 30.0465 16.7674 30.082 17.2163 30.0288C17.395 30.0081 17.5751 29.9977 17.7538 29.9844C18.2101 29.9504 18.6664 29.9282 19.1212 29.8823C20.2627 29.7699 21.3953 29.5865 22.5279 29.4119C23.3873 29.2803 24.2482 29.1664 25.118 29.1191C25.6348 29.091 26.1502 29.0599 26.6655 29.0244C27.4954 28.9667 28.3268 28.9415 29.1581 28.9149C30.0722 28.8868 30.9877 28.9016 31.8988 28.9859C32.1454 29.0096 32.392 29.0214 32.6386 29.0407C32.7479 29.0495 32.8424 29.0273 32.9251 28.9445C33.4316 28.4327 33.9514 27.9327 34.418 27.3824C35.0545 26.631 35.623 25.8262 36.1635 25.0053C36.9845 23.7568 37.7907 22.4979 38.6059 21.245C38.6502 21.177 38.6812 21.0423 38.7904 21.0971C38.8938 21.1489 38.8141 21.2613 38.7904 21.3397C38.628 21.8722 38.4139 22.3855 38.1821 22.8914C37.7922 23.7449 37.395 24.5955 37.0096 25.452C36.6271 26.304 36.2151 27.1369 35.6629 27.8942C35.3336 28.3469 35.0914 28.8691 34.5775 29.2433C34.7931 29.2685 34.9482 29.2892 35.1032 29.3054C35.7367 29.372 36.3702 29.4341 37.0037 29.5037C37.8971 29.6028 38.7904 29.7019 39.6824 29.8173C39.8655 29.8409 39.9541 29.7818 40.0368 29.6324C40.3262 29.1131 40.6038 28.5895 40.8489 28.0496C41.2432 27.1768 41.5134 26.2626 41.7645 25.3411C42.172 23.8396 42.4009 22.313 42.333 20.7524C42.2961 19.8974 42.237 19.0424 42.1115 18.1948C41.949 17.109 41.7763 16.0306 41.3569 15.0026C41.0394 14.223 40.7485 13.4375 40.2775 12.729C39.7739 11.9716 39.2157 11.2823 38.4331 10.7867C37.9443 10.4701 37.4511 10.4036 36.9136 10.59ZM36.4544 11.655C36.3303 11.797 36.2461 11.9671 36.1502 12.1284C35.8179 12.6905 35.4709 13.2437 35.1047 13.7851C35.0707 13.8354 35.0397 13.8857 35.0057 13.9346C34.9511 14.0159 34.9644 14.0603 35.0604 14.1047C35.4842 14.297 35.6762 14.6816 35.5905 15.1535C35.527 15.5055 35.3793 15.8265 35.1903 16.1268C34.8256 16.7037 34.3885 17.2126 33.8037 17.5794C33.6635 17.6682 33.5099 17.7274 33.3519 17.7791C33.2145 17.8235 33.0743 17.8486 32.934 17.7924C32.8498 17.7584 32.7966 17.788 32.7391 17.8516C32.4157 18.2066 32.0864 18.5557 31.7645 18.9122C31.4411 19.2687 31.0778 19.5823 30.7175 19.9004C30.6762 19.9359 30.6245 20.0113 30.5698 19.9566C30.5137 19.9033 30.5846 19.8471 30.6215 19.8057C31.2402 19.072 31.8353 18.3176 32.4895 17.612C32.5412 17.5572 32.5943 17.504 32.6475 17.4522C32.7391 17.3649 32.8424 17.3294 32.9502 17.4137C33.0521 17.4936 33.1555 17.4833 33.2692 17.4493C33.4803 17.3871 33.6753 17.2895 33.848 17.1549C34.3014 16.8013 34.6942 16.3916 34.9925 15.8975C35.1785 15.5884 35.3085 15.2156 35.3114 14.9922C35.3129 14.9005 35.2893 14.8132 35.2583 14.7289C35.1549 14.4538 34.9659 14.3828 34.7075 14.5174C34.6676 14.5381 34.6307 14.5632 34.5908 14.5839C34.5184 14.6209 34.4446 14.6268 34.3811 14.5692C34.3088 14.5041 34.3102 14.4227 34.3486 14.3413C34.3737 14.2866 34.4062 14.2363 34.4402 14.186C34.6292 13.9153 34.8138 13.6417 35.0087 13.3754C35.3852 12.8606 35.7411 12.331 36.0911 11.797C36.1575 11.6964 36.2225 11.5944 36.3185 11.5204C36.3746 11.4775 36.4425 11.4435 36.5001 11.5056C36.5562 11.5663 36.4928 11.6121 36.4544 11.655Z" fill="#F29584"/>
<path d="M9.19088 21.1767C9.76235 21.2566 10.3323 21.3454 10.9127 21.3276C11.3114 21.3158 11.7012 21.2344 12.094 21.1812C12.6743 21.1028 13.2458 20.9785 13.8069 20.8114C14.0373 20.7433 14.0447 20.7108 13.9531 20.4919C13.9384 20.4578 13.9207 20.4238 13.9059 20.3898C13.7479 20.0244 13.5914 19.6576 13.488 19.273C13.231 18.3174 13.1395 17.3381 13.0967 16.3544C13.0716 15.7849 13.0834 15.2124 13.2015 14.6488C13.2266 14.5275 13.203 14.4979 13.079 14.4905C12.9372 14.4831 12.794 14.4891 12.6522 14.4891C11.6953 14.4935 10.7724 14.6577 9.90559 15.0778C9.53642 15.2568 9.17169 15.4387 8.87192 15.742C8.33884 16.2789 7.95934 16.9106 7.6389 17.5851C7.57836 17.7123 7.57393 17.841 7.59313 17.9801C7.70683 18.8247 7.91061 19.6442 8.21776 20.4416C8.31965 20.7063 8.47765 20.8898 8.72425 21.0111C8.87635 21.085 9.02845 21.1531 9.19088 21.1767Z" fill="white"/>
<path d="M45.7251 29.506C46.0809 29.1835 46.4339 28.8611 46.7853 28.5342C46.9595 28.3714 46.9566 28.3463 46.7779 28.1851C46.7617 28.1703 46.744 28.1555 46.7277 28.1407C46.6554 28.0712 46.5963 28.0638 46.5254 28.154C46.2995 28.4365 46.0174 28.6629 45.7413 28.8921C45.5464 29.0549 45.3455 29.2102 45.1211 29.3921C45.2053 29.4528 45.2643 29.4971 45.3249 29.5386C45.5316 29.6761 45.5346 29.6791 45.7251 29.506Z" fill="#CE4339"/>
<path d="M42.2743 26.5643C42.6774 26.2063 43.082 25.8498 43.4807 25.4889C43.717 25.2744 43.7111 25.2685 43.466 25.0495C43.3921 24.983 43.339 24.9696 43.2563 25.0406C43.0348 25.23 42.8044 25.4105 42.5785 25.5954C42.5312 25.6338 42.4855 25.6752 42.4663 25.7329C42.3703 26.0155 42.2772 26.298 42.168 26.6264C42.2374 26.585 42.2595 26.5776 42.2743 26.5643Z" fill="#CE4339"/>
<path d="M42.9197 25.0155C43.2062 24.7788 43.2062 24.7388 42.9109 24.5051C42.8946 24.4933 42.871 24.4918 42.8356 24.48C42.7484 24.7107 42.7027 24.9474 42.6377 25.1797C42.651 25.1885 42.6643 25.1974 42.6776 25.2063C42.7573 25.1427 42.84 25.082 42.9197 25.0155Z" fill="#CE4339"/>
<path d="M28.3345 13.6875C28.1868 13.5973 28.1662 13.5987 28.0421 13.7112C28.0082 13.7408 27.9801 13.7763 27.9506 13.8088C27.1694 14.649 26.3676 15.467 25.4447 16.1549C25.4092 16.1815 25.3649 16.1978 25.3428 16.2806C25.4166 16.3235 25.486 16.3649 25.5584 16.4034C25.7681 16.5143 25.774 16.5129 25.9497 16.3575C26.784 15.6268 27.5976 14.8753 28.3936 14.1032C28.6372 13.865 28.7022 13.9123 28.3345 13.6875Z" fill="#CE4339"/>
<path d="M28.5162 43.1304C28.2651 43.2014 28.0156 43.2694 27.7675 43.3404C27.6863 43.3641 27.6538 43.4336 27.6257 43.5031C27.3806 44.1022 27.041 44.6496 26.7102 45.2013C26.6807 45.2501 26.6305 45.2945 26.6467 45.367C26.6674 45.3714 26.6895 45.3803 26.7087 45.3774C26.9155 45.3492 27.1222 45.3078 27.3304 45.293C27.5947 45.2738 27.7601 45.1614 27.8029 44.8877C27.8148 44.8152 27.8546 44.7472 27.8842 44.6791C28.0747 44.2472 28.2666 43.8167 28.4542 43.3848C28.4866 43.3138 28.5457 43.2472 28.5162 43.1304Z" fill="#0E5B80"/>
<path d="M30.0904 42.6113C29.7965 42.7119 29.5027 42.8184 29.2029 42.9101C29.0464 42.959 28.9534 43.0448 28.8943 43.2001C28.6698 43.7962 28.3967 44.3716 28.0851 44.9278C28.0541 44.984 27.9994 45.0343 28.0142 45.1142C28.0349 45.1172 28.0585 45.1275 28.0777 45.1231C28.3686 45.0551 28.658 44.9826 28.9504 44.916C29.0567 44.8923 29.1173 44.8332 29.1601 44.7355C29.2546 44.524 29.3521 44.3125 29.4554 44.1054C29.6755 43.6631 29.891 43.2178 30.0815 42.7622C30.0993 42.7193 30.148 42.6749 30.0904 42.6113Z" fill="#0E5B80"/>
<path d="M23.1461 44.5299C23.1889 44.3775 23.152 44.3346 22.9955 44.3494C22.7415 44.3746 22.489 44.4086 22.235 44.4293C22.1286 44.4382 22.077 44.4944 22.0371 44.5831C21.9071 44.8701 21.758 45.1482 21.6059 45.4248C21.5129 45.595 21.4258 45.768 21.3076 45.9943C21.7004 45.9692 22.043 45.95 22.3841 45.9248C22.4757 45.9174 22.5229 45.8464 22.5643 45.771C22.6588 45.592 22.7562 45.4145 22.8537 45.2355C22.9748 45.0106 23.0767 44.7769 23.1461 44.5299Z" fill="#0E5B80"/>
<path d="M25.9215 43.8228C25.669 43.8494 25.4312 43.9426 25.1831 43.981C25.0591 44.0003 24.9882 44.0668 24.9395 44.1822C24.749 44.6304 24.5319 45.0668 24.3119 45.5002C24.2986 45.5268 24.2838 45.5535 24.2735 45.5816C24.2336 45.6881 24.2543 45.7236 24.3695 45.7118C24.5703 45.6896 24.7682 45.6541 24.969 45.6274C25.0561 45.6156 25.0945 45.5579 25.127 45.4869C25.3515 44.9958 25.5981 44.5165 25.858 44.0446C25.8905 43.981 25.9451 43.9219 25.9215 43.8228Z" fill="#0E5B80"/>
<path d="M24.5735 44.1496C24.547 44.1215 24.5159 44.1245 24.4864 44.1304C24.2132 44.1748 23.9415 44.2251 23.6669 44.265C23.534 44.2842 23.4586 44.3449 23.4158 44.478C23.2741 44.9144 23.088 45.3315 22.8576 45.728C22.8458 45.7472 22.834 45.7664 22.8252 45.7872C22.7956 45.8552 22.8178 45.8892 22.8916 45.8818C23.1737 45.8537 23.4572 45.8256 23.7392 45.796C23.8559 45.7842 23.9208 45.7235 23.9622 45.6096C24.1217 45.1733 24.3166 44.7502 24.5189 44.3331C24.547 44.2754 24.5986 44.2206 24.5735 44.1496Z" fill="#0E5B80"/>
<path d="M27.2501 43.6925C27.284 43.6289 27.3372 43.5697 27.3239 43.4898C27.2944 43.4632 27.2634 43.4721 27.2353 43.478C26.9666 43.5446 26.6978 43.6126 26.4291 43.6792C26.3345 43.7028 26.2755 43.762 26.2386 43.8508C26.0407 44.3212 25.7941 44.7679 25.5667 45.2235C25.518 45.3226 25.4663 45.4202 25.4102 45.5327C25.611 45.5637 25.7823 45.4927 25.958 45.4898C26.2208 45.4868 26.4128 45.3995 26.4881 45.1185C26.5177 45.0046 26.5915 44.9025 26.6491 44.7975C26.8499 44.4306 27.0522 44.0623 27.2501 43.6925Z" fill="#0E5B80"/>
<path d="M28.6481 14.2584C28.0028 14.9167 27.3457 15.5631 26.6516 16.1696C26.4877 16.3131 26.3194 16.4492 26.154 16.5897C26.1126 16.6252 26.0639 16.6696 26.1171 16.7184C26.2278 16.819 26.3592 16.893 26.4951 16.9581C26.5305 16.9758 26.5675 16.9536 26.597 16.927C26.6472 16.8811 26.6959 16.8353 26.7447 16.788C27.1906 16.3649 27.6395 15.9448 28.081 15.5202C28.4532 15.1623 28.8194 14.7969 29.1885 14.4345C29.2196 14.4034 29.2594 14.3783 29.2639 14.3146C29.252 14.2999 29.2358 14.2732 29.2166 14.254C28.9818 14.0232 28.877 14.0247 28.6481 14.2584Z" fill="#CE4339"/>
<path d="M33.2756 41.4616C33.218 41.4291 33.1766 41.4528 33.1353 41.4676C32.3364 41.7664 31.5375 42.0681 30.7386 42.3655C30.6294 42.4054 30.5732 42.4779 30.5349 42.5844C30.3503 43.1007 30.1096 43.5918 29.8438 44.071C29.7212 44.2915 29.6031 44.5133 29.4746 44.75C29.5676 44.7619 29.6297 44.7293 29.6902 44.7116C30.4595 44.4852 31.2067 44.1983 31.9584 43.9231C32.2626 43.8122 32.4501 43.6495 32.5653 43.3373C32.7705 42.7826 33.0142 42.2412 33.2209 41.6865C33.249 41.614 33.2962 41.5415 33.2756 41.4616Z" fill="#0E5B80"/>
<path d="M36.6772 39.9502C36.5812 39.9502 36.5206 40.0005 36.4542 40.0316C35.9846 40.249 35.5195 40.4738 35.0469 40.6839C34.6423 40.8629 34.2303 41.0241 33.8198 41.1883C33.7061 41.2342 33.6382 41.2934 33.616 41.425C33.5924 41.5715 33.5348 41.7135 33.4861 41.8555C33.3074 42.3747 33.0682 42.8673 32.8408 43.3673C32.8186 43.4176 32.7669 43.4679 32.8201 43.5359C32.9102 43.527 32.9899 43.4841 33.0697 43.4457C33.8671 43.0625 34.6615 42.6735 35.4471 42.2652C35.5519 42.2105 35.6273 42.141 35.6804 42.0345C35.9787 41.428 36.2829 40.8244 36.5827 40.2194C36.6211 40.1395 36.6727 40.0626 36.6772 39.9502Z" fill="#0E5B80"/>
<path d="M19.0083 44.9073C19.1146 44.6647 19.1102 44.6588 18.8547 44.6588C18.682 44.6588 18.5092 44.6588 18.3379 44.6588C18.3379 44.6499 18.3379 44.6425 18.3379 44.6337C18.1504 44.6337 17.9628 44.6381 17.7768 44.6322C17.6911 44.6292 17.6321 44.644 17.6011 44.7313C17.4682 45.0981 17.322 45.4606 17.161 45.8171C17.1211 45.9043 17.161 45.9428 17.2481 45.9487C17.607 45.9739 17.9658 45.9946 18.3261 45.9916C18.4295 45.9901 18.4915 45.9472 18.5373 45.857C18.6332 45.6617 18.7366 45.4694 18.8341 45.2757C18.8946 45.1529 18.9537 45.0316 19.0083 44.9073Z" fill="#0E5B80"/>
<path d="M6.37466 30.3613C6.63899 30.2769 6.90774 30.2059 7.17354 30.1261C7.31087 30.0846 7.31235 30.0787 7.25476 29.9604C7.15582 29.7577 7.05541 29.5551 6.92398 29.3716C6.57106 28.882 6.28016 28.3584 6.03946 27.8051C5.75003 27.1365 5.44436 26.4753 5.16232 25.8022C4.85665 25.0729 4.6632 24.3067 4.45352 23.5464C4.3029 22.9961 4.14637 22.4473 4.04005 21.8852C3.89238 21.1012 3.80526 20.3112 3.75801 19.5154C3.71075 18.7255 3.69008 17.937 3.78902 17.153C4.04743 15.1146 4.5938 13.1665 5.61861 11.3677C6.10148 10.5201 6.64342 9.72424 7.40833 9.10148C7.99014 8.62664 8.61477 8.23612 9.35163 8.05121C9.77691 7.94471 10.2037 7.87074 10.6393 7.98613C10.7072 8.00388 10.818 7.99352 10.8165 8.08819C10.815 8.17991 10.7072 8.17547 10.6363 8.18287C10.465 8.2021 10.2893 8.19322 10.1224 8.2302C9.40331 8.387 8.7329 8.6577 8.14371 9.10888C7.60916 9.51567 7.13515 9.98459 6.74235 10.5319C6.13987 11.3736 5.66439 12.2863 5.2775 13.2419C4.70307 14.6605 4.41069 16.1501 4.29847 17.6693C4.20839 18.8704 4.30142 20.0701 4.49486 21.2624C4.65434 22.2446 4.92457 23.1973 5.18447 24.1543C5.31146 24.6262 5.45617 25.0922 5.63633 25.5463C5.68211 25.6617 5.71607 25.7845 5.80762 25.8939C5.95677 25.7001 6.08671 25.5182 6.22995 25.3466C6.3156 25.2445 6.34365 25.1499 6.30821 25.0182C6.24324 24.7801 6.19156 24.536 6.13987 24.2934C5.99073 23.5952 5.85488 22.894 5.84454 22.1766C5.8342 21.4384 5.89918 20.7062 6.02469 19.9784C6.24915 18.6811 6.67738 17.4592 7.43639 16.3779C8.28843 15.1649 9.3915 14.2922 10.8637 13.949C10.9154 13.9371 10.9656 13.9224 11.0158 13.9061C11.8339 13.625 12.68 13.5259 13.5395 13.523C13.9972 13.5215 14.4535 13.5304 14.9113 13.5555C15.5256 13.591 16.1369 13.6413 16.7483 13.7153C17.8144 13.8425 18.8688 14.0392 19.9083 14.3025C20.2864 14.3987 20.5669 14.3647 20.8239 14.0658C20.939 13.9312 21.0956 13.8321 21.2373 13.7197C21.2757 13.6901 21.3304 13.6369 21.3747 13.6842C21.4337 13.7463 21.3614 13.7937 21.3245 13.8321C21.1856 13.98 21.0395 14.1206 20.9021 14.27C20.8504 14.3262 20.7323 14.3691 20.7722 14.4564C20.8091 14.5392 20.9287 14.5259 21.0144 14.5436C21.1044 14.5629 21.1709 14.5037 21.2359 14.4519C21.4913 14.2434 21.7483 14.0348 22.0008 13.8232C22.1617 13.6886 22.3153 13.5437 22.4748 13.4091C22.5176 13.3736 22.5737 13.3026 22.6269 13.3484C22.6919 13.4031 22.6121 13.4549 22.5781 13.4949C22.3434 13.767 22.1174 14.0496 21.8413 14.2833C21.7113 14.3928 21.5903 14.5126 21.4603 14.6324C21.8014 14.8262 21.859 14.8173 22.1027 14.5836C22.6919 14.0155 23.2943 13.4638 23.9071 12.9194C24.0076 12.8292 24.1124 12.7434 24.2172 12.6576C24.2512 12.6295 24.2985 12.6014 24.3398 12.6384C24.3841 12.6768 24.3531 12.7227 24.3265 12.7582C24.2955 12.7996 24.2586 12.8381 24.2246 12.878C23.6989 13.4667 23.1334 14.0141 22.559 14.5555C22.4512 14.6575 22.3522 14.77 22.2385 14.8913C22.5427 15.0436 22.5619 15.0407 22.7819 14.8277C22.7923 14.8173 22.8026 14.8069 22.8144 14.7951C23.6561 13.9283 24.4978 13.06 25.3794 12.2331C25.5167 12.1044 25.5152 12.0925 25.3469 11.9979C24.675 11.6162 23.9913 11.2553 23.2707 10.9713C22.3301 10.5985 21.3865 10.2301 20.4414 9.86625C19.2867 9.421 18.126 8.99201 16.9328 8.65918C16.5932 8.56451 16.2595 8.44913 15.9125 8.38552C15.8623 8.37665 15.7988 8.36481 15.7973 8.29973C15.7943 8.21985 15.8623 8.20801 15.9228 8.20062C15.9745 8.19322 16.0276 8.19618 16.0793 8.19618C16.261 8.1947 16.4367 8.23316 16.6139 8.26718C17.7494 8.48759 18.8599 8.80119 19.9571 9.16805C20.9036 9.48461 21.8369 9.83667 22.7745 10.1754C23.6295 10.4846 24.4609 10.8455 25.2613 11.2775C25.9287 11.6369 26.5962 11.9949 27.2562 12.3662C28.8363 13.2523 30.3484 14.2404 31.7084 15.4489C31.7734 15.5066 31.8339 15.5776 31.921 15.5983C31.9845 15.5614 32.0008 15.5007 32.0259 15.4475C32.1839 15.1146 32.3463 14.7848 32.494 14.4475C32.8056 13.7315 33.1171 13.0156 33.4804 12.3233C33.5779 12.1369 33.6724 11.9476 33.8023 11.7819C34.5126 10.8707 35.4089 10.2168 36.4928 9.8204C36.8442 9.6917 37.209 9.6636 37.5796 9.69022C37.7731 9.70354 37.9591 9.7627 38.1865 9.81004C38.064 9.63105 37.9429 9.50088 37.8188 9.37366C37.2311 8.77309 36.6272 8.18582 36.0099 7.61631C35.3543 7.00982 34.7046 6.39741 34.0356 5.80571C32.7893 4.70367 31.3894 3.83535 29.9216 3.07206C28.8747 2.52769 27.7745 2.10758 26.6611 1.72002C26.0025 1.49074 25.3366 1.28216 24.647 1.16086C23.9603 1.03957 23.2678 0.946373 22.5708 0.922705C22.0702 0.906433 21.5666 0.919747 21.0646 0.943415C20.0885 0.989271 19.1227 1.10169 18.1703 1.32358C17.5043 1.4789 16.8413 1.6431 16.2477 2.00256C15.7678 2.29249 15.2568 2.50107 14.7178 2.64603C14.108 2.81023 13.4966 2.87827 12.875 2.7126C12.6653 2.65639 12.4512 2.61645 12.24 2.56467C11.3363 2.34426 10.437 2.11202 9.5244 1.93007C8.96326 1.81913 8.40065 1.73925 7.8277 1.77032C7.62392 1.78067 7.42162 1.81173 7.24294 1.91528C6.28754 2.47444 5.37496 3.08685 4.64991 3.94333C4.06072 4.64006 3.53503 5.37673 3.1319 6.19771C2.34631 7.79974 1.83686 9.49496 1.45883 11.2331C1.16793 12.5718 1.02174 13.9327 0.971532 15.2995C0.933139 16.3202 0.913942 17.3424 0.995159 18.3631C1.06604 19.2417 1.20485 20.1071 1.39534 20.9665C1.71134 22.3881 2.22079 23.7446 2.79965 25.0759C3.30172 26.2282 3.88795 27.3332 4.60709 28.3687C5.06633 29.0314 5.58612 29.6409 6.08228 30.2725C6.15759 30.3716 6.24767 30.4012 6.37466 30.3613ZM21.0468 2.22445C21.1886 1.91232 21.4293 1.70523 21.7512 1.60168C22.0953 1.49074 22.4526 1.4434 22.8144 1.43896C22.8868 1.43748 22.9857 1.42565 22.9975 1.5218C23.0079 1.61647 22.9089 1.62979 22.838 1.64606C22.649 1.69044 22.4571 1.7289 22.2666 1.77179C21.6257 1.91528 21.385 2.20669 21.3407 2.86348C21.3053 3.39157 21.4854 3.8531 21.7586 4.28652C22.1219 4.86343 22.5826 5.35602 23.0817 5.81459C23.8614 6.52906 24.7577 7.05124 25.7559 7.3959C26.4839 7.64886 27.2326 7.79974 28.0049 7.78643C28.5129 7.77903 29.0031 7.67696 29.4535 7.42697C29.7134 7.28348 29.9275 7.08822 30.1003 6.84562C30.2819 6.58971 30.3262 6.30718 30.2642 6.00837C30.1978 5.69033 30.0781 5.39004 29.9113 5.11046C29.8153 4.9507 29.8035 4.84864 29.8773 4.75988C29.9556 4.66521 30.0737 4.65485 30.2494 4.73473C30.7958 4.98473 31.3171 5.28058 31.8236 5.60453C32.7908 6.22434 33.7108 6.91071 34.6425 7.58377C34.6927 7.62075 34.7592 7.65034 34.7607 7.74205C34.6573 7.76128 34.582 7.70507 34.5067 7.66513C33.8141 7.30567 33.1437 6.90627 32.4763 6.50244C32.0008 6.21546 31.5253 5.92849 31.0365 5.66518C30.8726 5.57643 30.7072 5.49211 30.5344 5.43738C30.4813 5.49211 30.5167 5.53353 30.53 5.57347C30.8696 6.56604 30.5684 7.35892 29.6543 7.87518C29.2099 8.12665 28.7299 8.2657 28.2235 8.3086C27.0997 8.40327 26.0306 8.17991 25.0014 7.74205C23.3844 7.05568 22.1662 5.91222 21.2418 4.43592C21.0454 4.12232 20.9184 3.77766 20.8623 3.40637C20.7973 2.99218 20.8755 2.60165 21.0468 2.22445Z" fill="#1796D4"/>
<path d="M27.8667 13.4107C27.6984 13.3131 27.5285 13.2154 27.3602 13.1193C27.2864 13.0779 27.2303 13.1178 27.1815 13.1681C27.0885 13.2657 26.9999 13.3678 26.9054 13.4654C26.17 14.2169 25.4199 14.9506 24.6446 15.6606C24.6003 15.7006 24.5575 15.7435 24.5147 15.7864C24.4659 15.8367 24.4748 15.8825 24.5368 15.9121C24.6579 15.9698 24.7864 16.0186 24.903 16.0837C25.0285 16.1532 25.1275 16.1251 25.2309 16.0393C25.4553 15.8515 25.6798 15.6651 25.8968 15.4683C26.5672 14.8559 27.1845 14.1888 27.8534 13.5734C27.88 13.5483 27.9125 13.5261 27.914 13.4832C27.9125 13.4492 27.8933 13.4255 27.8667 13.4107Z" fill="#CE4339"/>
<path d="M25.6214 12.4107C25.2818 12.7495 24.9451 13.0912 24.6069 13.4314C24.1418 13.8988 23.687 14.3766 23.1893 14.8115C23.0786 14.9077 22.9501 14.9876 22.8379 15.1355C23.0107 15.2095 23.148 15.2657 23.2838 15.3278C23.3798 15.3722 23.4537 15.3544 23.5231 15.2745C23.6353 15.1444 23.7519 15.0157 23.8686 14.8899C24.5626 14.1429 25.2788 13.4181 25.9994 12.6962C26.0467 12.6489 26.0939 12.6001 26.1382 12.5498C26.1663 12.5187 26.1663 12.4832 26.1412 12.4477C26.0186 12.282 25.772 12.2613 25.6214 12.4107Z" fill="#CE4339"/>
<path d="M17.1901 44.6051C16.8327 44.5711 16.4754 44.5415 16.118 44.5134C15.9201 44.4986 15.9172 44.5001 15.8315 44.685C15.6927 44.9838 15.5598 45.2856 15.421 45.5844C15.3413 45.7575 15.3413 45.7723 15.5229 45.7959C15.864 45.8388 16.2066 45.8743 16.5477 45.9128C16.5477 45.9098 16.5492 45.9054 16.5492 45.9025C16.6083 45.9069 16.6703 45.9069 16.7279 45.9187C16.8386 45.9409 16.8947 45.8877 16.9287 45.79C17.0513 45.4513 17.1782 45.1155 17.2979 44.7753C17.3466 44.6347 17.3333 44.6185 17.1901 44.6051Z" fill="#0E5B80"/>
<path d="M26.8688 12.8443C26.7905 12.8 26.7123 12.7556 26.6325 12.7142C26.4568 12.6195 26.4465 12.618 26.3076 12.7644C26.1053 12.976 25.9104 13.1934 25.7096 13.4064C25.0879 14.0662 24.4677 14.7274 23.818 15.3605C23.6777 15.4966 23.6821 15.5085 23.8475 15.5943C23.8874 15.615 23.9287 15.6342 23.9686 15.6519C24.1517 15.7333 24.1547 15.7333 24.2994 15.5898C24.8546 15.0425 25.4098 14.4967 25.9606 13.9449C26.2574 13.6476 26.5454 13.3428 26.8363 13.0396C26.8717 13.0026 26.916 12.9701 26.9205 12.9139C26.919 12.8784 26.8954 12.8591 26.8688 12.8443Z" fill="#CE4339"/>
<path d="M15.5891 14.6369C15.0531 14.5807 14.5156 14.523 13.9751 14.5244C13.761 14.5259 13.7536 14.5333 13.7315 14.7508C13.6798 15.2522 13.6946 15.7537 13.7241 16.2581C13.7625 16.912 13.8496 17.5584 13.9648 18.2019C14.1051 18.9829 14.3458 19.7299 14.681 20.4488C14.7459 20.5879 14.8345 20.6781 14.9793 20.7314C15.2126 20.8157 15.4429 20.903 15.6851 20.9607C16.5194 21.1574 17.3597 21.3038 18.2205 21.292C18.3549 21.292 18.4908 21.2861 18.6252 21.2935C19.1361 21.3201 19.6426 21.2802 20.1476 21.2092C21.0159 21.0849 21.8738 20.9 22.7303 20.7107C23.0817 20.6323 23.4361 20.5716 23.7743 20.44C24.0401 20.3364 24.0401 20.3379 23.9648 20.0701C23.8186 19.5539 23.7418 19.0273 23.7595 18.4903C23.7787 17.9563 23.8422 17.4282 23.9441 16.9031C23.9796 16.7211 23.981 16.7152 23.8245 16.6398C23.507 16.4874 23.1925 16.3262 22.8661 16.1945C21.292 15.5584 19.6426 15.2108 17.9754 14.9401C17.1839 14.8114 16.3865 14.7212 15.5891 14.6369Z" fill="white"/>
<path d="M20.6794 44.57C20.5598 44.573 20.4416 44.6026 20.3235 44.5996C20.1685 44.5966 20.099 44.675 20.0474 44.8097C19.9337 45.1099 19.8111 45.4088 19.6856 45.7046C19.5542 46.0167 19.5586 46.0256 19.8967 46.0256C19.9558 46.0256 20.0164 46.0256 20.0754 46.0256C20.1581 46.0271 20.2187 45.9945 20.2497 45.9132C20.4121 45.5019 20.5908 45.0981 20.7768 44.6972C20.8256 44.5981 20.8005 44.5671 20.6794 44.57Z" fill="#0E5B80"/>
<path d="M21.6915 44.5034C21.6117 44.4693 21.532 44.5182 21.4523 44.5122C21.2943 44.4989 21.2071 44.5773 21.1436 44.7179C20.9989 45.0389 20.838 45.3539 20.6903 45.6749C20.643 45.78 20.5131 45.8983 20.5884 45.9945C20.6593 46.0862 20.8143 46.0018 20.9325 46.0018C21.0358 46.0018 21.0964 45.9545 21.1303 45.8539C21.2632 45.4619 21.4685 45.101 21.6295 44.7208C21.659 44.6543 21.7151 44.5951 21.6915 44.5034Z" fill="#0E5B80"/>
<path d="M19.7508 44.7398C19.7597 44.7102 19.7508 44.6806 19.7213 44.6629C19.6312 44.6067 19.4112 44.6629 19.3684 44.7649C19.2118 45.1377 19.0405 45.5031 18.8441 45.8581C18.788 45.9587 18.8087 45.9839 18.9298 45.9957C18.9593 45.9986 18.9889 45.9957 19.0199 45.9957C19.231 45.9972 19.2399 45.9912 19.3182 45.8004C19.4466 45.4898 19.5766 45.1777 19.705 44.867C19.7242 44.8241 19.739 44.7827 19.7508 44.7398Z" fill="#0E5B80"/>
<path d="M42.6698 36.1928C42.655 36.1824 42.624 36.178 42.6078 36.1869C42.5147 36.2357 42.4247 36.2875 42.3331 36.3407C40.539 37.3747 38.7566 38.428 36.8886 39.3259C35.5286 39.9797 34.1361 40.5551 32.7185 41.0699C31.7735 41.4131 30.8284 41.7518 29.8818 42.0906C29.0903 42.3731 28.2797 42.5935 27.466 42.8036C26.3556 43.0905 25.2436 43.3716 24.114 43.5743C23.4864 43.6867 22.8529 43.7547 22.2194 43.8243C21.3334 43.9219 20.4444 43.9899 19.554 44.0373C18.8807 44.0728 18.2058 44.0713 17.531 44.021C17.2179 43.9973 16.9019 43.9899 16.5889 43.9692C14.7164 43.845 12.8558 43.6438 11.0381 43.1453C9.84935 42.8198 8.68573 42.4234 7.57528 41.8864C6.79707 41.5107 6.0484 41.0817 5.36766 40.5448C5.23771 40.4427 5.11958 40.3273 5.01178 40.2016C4.98077 40.1646 4.94681 40.098 4.88774 40.1409C4.88627 40.1424 4.88331 40.1439 4.88184 40.1454C6.70109 41.8332 9.14941 43.345 12.3154 43.8243C20.6084 45.0772 27.1087 43.7932 34.9365 40.3761C37.308 39.3407 40.028 37.8422 42.689 36.2298C42.689 36.215 42.6831 36.2032 42.6698 36.1928Z" fill="#8C1126"/>
<path d="M39.0082 37.0373C38.9492 37.0492 38.8916 37.0625 38.8325 37.0773C38.4973 37.1616 38.1724 37.2755 37.852 37.4057C37.2613 37.6453 36.6884 37.9249 36.1154 38.203C36.0519 38.234 35.9929 38.2888 35.888 38.274C35.9471 38.1734 36.0003 38.0861 36.0519 37.9974C36.1642 37.8095 36.2513 37.6113 36.2956 37.3953C36.3798 36.9782 36.238 36.6172 35.891 36.3731C35.7034 36.2415 35.4923 36.1661 35.2723 36.1128C34.7303 35.9797 34.1854 36.0063 33.642 36.0936C32.505 36.2755 31.4034 36.5936 30.3343 37.0151C29.0023 37.5403 27.7457 38.2059 26.6456 39.1379C26.2321 39.487 25.8496 39.8686 25.5366 40.3139C25.352 40.5757 25.2161 40.8568 25.1659 41.1748C25.1261 41.4233 25.1822 41.6526 25.3136 41.8641C25.3653 41.9455 25.4435 41.9913 25.544 41.9618C25.6444 41.9337 25.6842 41.8552 25.6946 41.7591C25.699 41.7221 25.6961 41.6837 25.6887 41.6467C25.6163 41.3138 25.7226 41.0254 25.9043 40.7547C26.1228 40.4293 26.3886 40.1438 26.6751 39.8775C27.4297 39.1778 28.2847 38.6246 29.2017 38.169C30.7847 37.382 32.4489 36.8524 34.212 36.6572C34.5383 36.6217 34.8544 36.6616 35.1704 36.7237C35.2885 36.7474 35.4007 36.7918 35.5041 36.8554C35.6902 36.9708 35.7448 37.0995 35.702 37.3125C35.6798 37.4234 35.6385 37.5284 35.5897 37.6305C35.4362 37.95 35.2265 38.2355 35.0242 38.5225C34.937 38.6453 34.8425 38.7621 34.7776 38.8982C34.7244 39.0092 34.7303 39.1201 34.816 39.2133C34.8987 39.3035 35.0035 39.3331 35.1231 39.2991C35.2176 39.2725 35.3018 39.2237 35.3874 39.1748C36.0578 38.7917 36.7415 38.4337 37.4415 38.1054C37.9435 37.8701 38.4323 37.6068 38.9004 37.3066C38.9565 37.2696 39.0141 37.2326 39.0658 37.1912C39.1057 37.1601 39.1618 37.1261 39.1278 37.064C39.1057 37.0166 39.0525 37.0285 39.0082 37.0373Z" fill="#8C1126"/>
<path d="M42.6674 36.2697C42.6305 36.3066 42.5906 36.3407 42.5507 36.3747C42.2111 36.6469 41.8656 36.9117 41.5008 37.1498C40.1689 38.0211 38.797 38.8243 37.3853 39.5595C37.2229 39.6438 37.1092 39.7489 37.0428 39.9219C36.9143 40.2592 36.7253 40.5684 36.5496 40.8834C36.3458 41.2503 36.1346 41.6127 35.9102 42.0032C36.0209 41.9899 36.0829 41.9441 36.1494 41.9115C36.8065 41.5816 37.4429 41.2133 38.0823 40.8509C39.2652 40.1808 40.4214 39.4722 41.5008 38.6409C42.3691 37.9723 43.2182 37.28 44.0466 36.5626C44.7776 35.928 45.507 35.2919 46.2247 34.6425C46.8021 34.1203 47.3219 33.5449 47.8195 32.9473C46.2173 34.0227 44.4675 35.1528 42.691 36.2297C42.6866 36.243 42.6792 36.2578 42.6674 36.2697Z" fill="#0E5B80"/>
<path d="M48.7201 31.3464C48.7482 31.2059 48.7113 31.1704 48.5828 31.2251C48.0689 31.4411 47.527 31.4381 46.988 31.4204C46.5465 31.4056 46.1035 31.3937 45.6619 31.3863C45.5719 31.3849 45.4818 31.3893 45.3917 31.3804C44.7051 31.3124 44.0155 31.3109 43.3273 31.2576C42.8873 31.2236 42.4443 31.197 42.0057 31.1511C41.2748 31.0742 40.5468 30.9855 39.8173 30.9011C38.9904 30.8065 38.1649 30.7088 37.338 30.6157C36.5479 30.5269 35.7594 30.4426 34.9694 30.3583C34.3433 30.2917 33.7172 30.2296 33.0911 30.16C32.4723 30.0905 31.8536 30.0284 31.2319 30.0062C29.9059 29.9589 28.5784 29.9781 27.2523 30.0535C26.9452 30.0713 26.638 30.0802 26.3323 30.1009C25.5172 30.1571 24.7021 30.2118 23.8885 30.2725C23.4396 30.305 22.9921 30.3494 22.5447 30.3834C21.895 30.4352 21.2452 30.5003 20.594 30.5269C19.9886 30.552 19.3817 30.5683 18.7748 30.5476C18.0852 30.5239 17.397 30.5905 16.7074 30.6112C16.071 30.6304 15.4331 30.623 14.7951 30.6216C14.33 30.6216 13.8678 30.5801 13.4041 30.552C12.9183 30.5225 12.4354 30.4515 11.9466 30.4396C11.6927 30.4337 11.4372 30.413 11.1847 30.3893C10.3814 30.3168 9.58102 30.3449 8.78509 30.4692C7.91681 30.6053 7.0692 30.8331 6.24227 31.1319C5.27505 31.481 4.36395 31.9277 3.59017 32.6215C3.18114 32.9869 2.778 33.3552 2.51516 33.8523C2.12236 34.5948 1.91711 35.3848 1.85213 36.2205C1.84623 36.2975 1.8418 36.3744 1.8418 36.4513C2.5314 37.5445 3.53258 38.8921 4.88078 40.142C4.88226 40.1405 4.88373 40.1391 4.88669 40.1376C4.94575 40.0947 4.97824 40.1613 5.01073 40.1982C5.11852 40.324 5.23666 40.4379 5.3666 40.5414C6.04735 41.0784 6.7975 41.5074 7.57422 41.8831C8.68468 42.4201 9.84977 42.815 11.037 43.1419C12.8533 43.6404 14.7154 43.8416 16.5878 43.9659C16.9023 43.9866 17.2169 43.994 17.5299 44.0177C18.2048 44.068 18.8796 44.0694 19.553 44.0339C20.4434 43.9866 21.3323 43.9185 22.2183 43.8209C22.8518 43.7514 23.4853 43.6833 24.1129 43.5709C25.2426 43.3683 26.3545 43.0872 27.465 42.8002C28.2786 42.5902 29.0893 42.3713 29.8808 42.0872C30.8273 41.7485 31.7739 41.4097 32.7175 41.0666C34.1351 40.5518 35.5276 39.9763 36.8876 39.3225C38.7556 38.4246 40.5394 37.3714 42.3321 36.3374C42.4236 36.2856 42.5137 36.2324 42.6067 36.1835C42.623 36.1747 42.654 36.1791 42.6687 36.1895C42.682 36.1998 42.6879 36.2131 42.6865 36.225C44.4644 35.1466 46.2142 34.0179 47.8149 32.9425C47.9522 32.7783 48.0881 32.6112 48.2225 32.444C48.4809 32.1289 48.6419 31.7517 48.7201 31.3464ZM39.0671 37.1909C39.014 37.2323 38.9579 37.2708 38.9018 37.3063C38.4336 37.6066 37.9449 37.8699 37.4428 38.1051C36.7429 38.432 36.0592 38.7915 35.3888 39.1746C35.3046 39.2234 35.2204 39.2722 35.1244 39.2989C35.0048 39.3314 34.9 39.3033 34.8173 39.2131C34.7316 39.1199 34.7257 39.0104 34.7789 38.898C34.8439 38.7619 34.9384 38.6435 35.0255 38.5222C35.2293 38.2338 35.4375 37.9498 35.5911 37.6303C35.6398 37.5282 35.6811 37.4232 35.7033 37.3122C35.7461 37.0992 35.6915 36.9705 35.5054 36.8551C35.402 36.7915 35.2898 36.7471 35.1717 36.7235C34.8557 36.6613 34.5397 36.6214 34.2133 36.6569C32.4502 36.8522 30.786 37.3803 29.203 38.1687C28.286 38.6243 27.431 39.179 26.6764 39.8772C26.3899 40.1435 26.1241 40.429 25.9056 40.7544C25.724 41.0251 25.6176 41.3136 25.69 41.6464C25.6974 41.6819 25.7003 41.7219 25.6959 41.7588C25.6856 41.855 25.6457 41.9334 25.5453 41.9615C25.4434 41.9896 25.3651 41.9452 25.3149 41.8639C25.1835 41.6538 25.1274 41.4231 25.1673 41.1745C25.2175 40.8565 25.3548 40.5754 25.5379 40.3136C25.851 39.8684 26.2349 39.4867 26.6469 39.1376C27.747 38.2057 29.0036 37.54 30.3356 37.0149C31.4047 36.5933 32.5078 36.2767 33.6433 36.0933C34.1867 36.006 34.7316 35.9794 35.2736 36.1125C35.4936 36.1673 35.7048 36.2412 35.8923 36.3729C36.2393 36.617 36.3811 36.9779 36.2969 37.3951C36.2526 37.611 36.1655 37.8092 36.0533 37.9971C36.0016 38.0859 35.9484 38.1731 35.8893 38.2737C35.9942 38.2885 36.0533 38.2338 36.1168 38.2027C36.6897 37.9246 37.2626 37.6436 37.8533 37.4054C38.1738 37.2767 38.4986 37.1613 38.8338 37.077C38.8914 37.0622 38.9505 37.0489 39.0095 37.0371C39.0538 37.0282 39.1055 37.0164 39.1306 37.0637C39.1631 37.1258 39.107 37.1599 39.0671 37.1909Z" fill="#1796D4"/>
<path d="M1.8415 36.4531C1.83116 37.0064 1.93896 37.5345 2.16046 38.0478C2.33323 38.4486 2.52667 38.8392 2.75408 39.2104C3.57806 40.5477 4.61468 41.6985 5.85656 42.6541C7.32437 43.7828 8.98562 44.5121 10.7768 44.947C11.8046 45.197 12.8515 45.3493 13.8926 45.5357C14.2175 45.5934 14.5423 45.6481 14.8672 45.7029C14.9587 45.7191 15.0488 45.728 15.0961 45.6186C15.2467 45.2754 15.3988 44.9322 15.5509 44.5875C15.5937 44.4899 15.5524 44.447 15.4564 44.4352C15.3072 44.4189 15.1581 44.4026 15.009 44.3849C13.7641 44.2429 12.5282 44.0461 11.3188 43.7059C9.9366 43.3168 8.58692 42.842 7.31846 42.1571C6.59194 41.7651 5.89348 41.3243 5.26885 40.777C5.10789 40.6364 4.97351 40.4782 4.88934 40.2814C4.87015 40.237 4.83323 40.1808 4.87753 40.1424C3.53376 38.8939 2.5311 37.5463 1.8415 36.4531Z" fill="#0E5B80"/>
<path d="M7.70381 30.24C7.70381 30.24 4.66187 25.6529 4.34144 21.9961C4.021 18.3394 3.70056 14.4268 5.97463 11.1547C8.2487 7.88262 10.6498 7.81901 11.8341 7.85156C13.0183 7.8841 15.3884 7.85156 19.2942 9.13407C23.2 10.4166 30.3411 14.2981 31.7809 15.9016L30.9805 18.1471L29.2514 19.7506C29.2514 19.7506 24.9926 15.4209 20.254 14.7463C15.5154 14.0733 11.7056 13.881 10.6483 14.3617C9.59099 14.8425 6.61403 16.7034 6.42206 19.8143C6.2301 22.9251 9.08007 30.0788 9.08007 30.0788L7.70381 30.24Z" fill="#0E5B80"/>
<path d="M42.7016 23.9844C42.7016 23.9844 47.3117 27.9295 48.6245 30.8481L45.1661 30.6558L41.6768 27.4488L42.7016 23.9844Z" fill="#0E5B80"/>
<path d="M22.9969 1.52191C22.9969 1.52191 23.7456 0.82666 21.9204 0.730509C21.9204 0.730509 22.4003 -0.488393 27.2999 1.46865C32.1995 3.4257 33.6393 4.51591 34.5356 5.38127C35.4319 6.24663 38.0575 9.29389 38.0575 9.29389C38.0575 9.29389 35.1115 8.01138 33.2228 6.79248C31.3342 5.57357 30.2134 5.15643 30.2134 5.15643C30.2134 5.15643 30.5663 6.05433 30.4054 6.53509C30.2459 7.01584 29.605 8.42705 26.5306 7.88268C23.4562 7.33684 21.5675 4.93158 21.1511 3.68013C20.7361 2.43017 21.5764 1.44795 22.9969 1.52191Z" fill="white"/>
<path d="M10.7764 1.59621C10.7764 1.59621 12.5528 3.71302 14.7146 3.2796C16.8765 2.84618 22.448 1.30628 23.6485 1.5474C24.849 1.78851 22.8806 0.440918 22.8806 0.440918L17.3579 1.01783L14.1387 2.3669L10.7764 1.59621Z" fill="white"/>
<path d="M8.75977 42.6361C8.75977 42.6361 13.8026 43.7913 18.2208 43.2618C22.639 42.7322 25.5436 41.9615 25.5436 41.9615C25.5436 41.9615 24.8318 39.5415 30.0518 37.361C35.2704 35.1806 36.1667 37.1051 36.0073 37.3936C35.8478 37.682 35.3989 38.8373 35.3989 38.8373C35.3989 38.8373 39.0167 37.0415 40.2335 36.7531C41.4503 36.4646 42.0262 36.6895 42.0262 36.6895L35.9748 40.0888L25.0888 43.7455L20.0297 44.3224L13.7214 44.0014C13.7228 43.9999 9.11269 43.0369 8.75977 42.6361Z" fill="white"/>
<path d="M12.2407 32.3807C12.2156 31.8348 11.7918 31.3496 11.2204 31.3585C8.65391 31.4029 6.00181 32.1588 4.1796 34.0567C3.71297 34.5419 3.30098 35.0966 2.99384 35.6972C2.86832 35.9412 2.81664 36.2149 2.89047 36.4841C2.95544 36.7208 3.13855 36.9782 3.35857 37.0951C3.59484 37.2208 3.88131 37.2829 4.14416 37.1986C4.38929 37.1187 4.63294 36.9664 4.75403 36.7297C4.89726 36.4501 5.06117 36.1838 5.24576 35.9309C5.54995 35.5522 5.89549 35.212 6.27352 34.9072C6.72095 34.5774 7.20382 34.2993 7.71032 34.0744C8.41321 33.7919 9.15007 33.604 9.90022 33.4931C10.3373 33.4398 10.7774 33.4117 11.2174 33.4043C11.4817 33.3999 11.7505 33.2934 11.938 33.1055C12.1182 32.925 12.2511 32.6351 12.2407 32.3807Z" fill="white"/>
<path d="M7.03954 2.56038C6.90664 2.35328 6.70729 2.16986 6.45921 2.11364C6.22294 2.06039 5.91432 2.05743 5.71201 2.21127C5.20552 2.59736 4.73446 3.01303 4.31952 3.49822C3.91638 3.9701 3.55017 4.47749 3.23564 5.01445C2.59034 6.11797 2.14438 7.34427 1.85053 8.58684C1.6689 9.35605 1.54929 10.1371 1.44887 10.9196C1.41934 11.1489 1.57882 11.4522 1.73387 11.6075C1.90221 11.7761 2.17835 11.9033 2.42052 11.893C2.67155 11.8811 2.93145 11.7998 3.10717 11.6075C3.15738 11.5424 3.20906 11.4758 3.25927 11.4107C3.34639 11.2584 3.39069 11.0957 3.39217 10.9196C3.39364 10.9107 3.39512 10.9019 3.39512 10.8945C3.57675 9.58978 3.86765 8.29543 4.36677 7.07357C4.67244 6.37684 5.04899 5.71118 5.50528 5.10173C5.89364 4.61506 6.33221 4.17128 6.82395 3.78816C6.79884 3.80739 6.77226 3.8281 6.74716 3.84733C6.93027 3.70236 7.07055 3.55148 7.137 3.31036C7.2005 3.07664 7.17244 2.76599 7.03954 2.56038Z" fill="white"/>
<path d="M49.3759 30.4324C49.3745 30.351 49.3612 30.2682 49.3435 30.1868C49.2814 29.9013 49.2002 29.6173 49.1515 29.3303C48.9905 28.3792 48.7469 27.4517 48.4353 26.5405C48.0425 25.3955 47.6497 24.2521 47.127 23.1589C46.7696 22.4134 46.3635 21.693 45.956 20.9755C45.098 19.4667 44.2416 17.9564 43.2684 16.52C42.7516 15.7553 42.313 14.9624 42.0074 14.0911C41.684 13.174 41.145 12.3781 40.5543 11.6148C40.324 11.3175 40.0493 11.0601 39.8189 10.7628C39.2283 9.99655 38.6347 9.22882 38.0277 8.4744C37.1137 7.33834 36.1524 6.24665 35.0508 5.28514C34.4778 4.78515 33.8886 4.30883 33.2301 3.93014C32.3263 3.40945 31.4093 2.9139 30.5115 2.38433C29.6373 1.86955 28.7277 1.42429 27.7708 1.08407C26.8361 0.751236 25.8895 0.464261 24.9016 0.344442C24.5517 0.301543 24.1973 0.289709 23.8532 0.226102C23.0765 0.0811352 22.2909 0.0367577 21.5053 0.00865193C21.1243 -0.00466132 20.7419 0.0160482 20.3594 0.0323199C19.6831 0.0604257 19.0127 0.12995 18.3526 0.270479C17.5656 0.437634 16.7844 0.635854 16.0815 1.03969C15.6651 1.27785 15.2176 1.4169 14.7702 1.56482C14.6137 1.6166 14.4498 1.64766 14.2962 1.70535C13.837 1.87694 13.3718 1.87694 12.9022 1.76748C12.1506 1.59145 11.399 1.41394 10.6474 1.23495C9.77022 1.02786 8.88865 0.8607 7.97902 0.890285C7.59804 0.902119 7.23626 0.980519 6.88776 1.12844C6.04311 1.4879 5.28115 1.97605 4.64766 2.6432C3.8222 3.513 3.10159 4.46119 2.55669 5.53513C2.33224 5.97743 2.09154 6.41085 1.92025 6.87829C1.60867 7.73182 1.30891 8.58978 1.04754 9.46106C0.777309 10.3619 0.538089 11.2687 0.387469 12.1977C0.254568 12.995 0.182212 13.8012 0.120192 14.6103C0.0626015 15.3751 0.0522648 16.1399 0.00796474 16.9046C-0.0141853 17.2715 0.0153481 17.6398 0.0301148 18.0082C0.0552181 18.5866 0.117238 19.1605 0.198455 19.733C0.384515 21.0258 0.731532 22.2728 1.18635 23.4962C1.7401 24.9858 2.4105 26.4192 3.2212 27.786C3.51948 28.2904 3.88422 28.752 4.1958 29.2475C4.4616 29.6691 4.7776 30.0493 5.14382 30.388C5.2147 30.4546 5.27967 30.5271 5.3476 30.5981C5.41405 30.6676 5.39633 30.7149 5.31216 30.7475C5.29148 30.7549 5.27081 30.7667 5.25014 30.7756C3.91228 31.3333 2.83726 32.2178 1.99556 33.3938C1.77701 33.6986 1.54222 33.9974 1.39456 34.345C1.17158 34.8701 0.995856 35.413 0.877722 35.9751C0.755159 36.5609 0.778786 37.1378 0.948603 37.7118C1.19373 38.5402 1.58652 39.3005 2.03986 40.0283C2.74571 41.1599 3.64795 42.1259 4.64323 42.9986C6.37979 44.5208 8.41759 45.4231 10.6813 45.824C11.5599 45.9793 12.4445 46.0962 13.3246 46.2426C14.2342 46.3935 15.1438 46.5473 16.0594 46.6479C16.6633 46.7145 17.2687 46.753 17.8742 46.787C18.8842 46.8432 19.8957 46.8846 20.8246 46.9098C21.2661 46.9009 21.6264 46.892 21.9852 46.8772C23.0588 46.8358 24.122 46.7234 25.1807 46.5488C26.6249 46.3121 28.044 45.9645 29.4498 45.5562C29.7953 45.4557 30.1261 45.3136 30.4805 45.2352C31.4049 45.0326 32.3175 44.79 33.1917 44.4187C33.8192 44.1524 34.4409 43.8669 35.0611 43.5859C35.6075 43.3374 36.1568 43.0948 36.6928 42.8256C37.3824 42.4779 38.0484 42.083 38.7233 41.7087C40.5469 40.6954 42.2333 39.4854 43.8251 38.1408C44.8057 37.3124 45.7492 36.4441 46.7047 35.5861C47.5035 34.8687 48.1725 34.0432 48.8133 33.1897C49.1781 32.703 49.3715 32.1306 49.5738 31.564C49.6816 31.2608 49.6285 30.9871 49.466 30.7268C49.4129 30.6321 49.3774 30.5419 49.3759 30.4324ZM43.2965 20.4134C43.2552 19.551 43.1843 18.6901 43.0543 17.8366C43.041 17.7493 43.0189 17.6635 43.044 17.5585C43.1237 17.6102 43.1503 17.6813 43.1858 17.7449C43.6361 18.5599 44.0939 19.3706 44.5339 20.1901C45.1128 21.2684 45.6651 22.3601 46.2011 23.4607C46.9941 25.0893 47.5921 26.7846 48.0174 28.5419C48.1592 29.1262 48.2817 29.7135 48.487 30.28C48.552 30.4575 48.5402 30.4723 48.357 30.5004C48.2315 30.5197 48.1031 30.5285 47.9761 30.5285C47.6246 30.5271 47.2761 30.4635 46.9247 30.4738C46.8951 30.3821 46.9645 30.3584 47.0015 30.3185C47.0945 30.2209 47.1949 30.1291 47.2835 30.0286C47.3367 29.9679 47.3943 29.8851 47.316 29.8096C47.2422 29.7386 47.1801 29.8126 47.1225 29.8584C46.9409 30.0049 46.7608 30.1499 46.5806 30.2978C46.5068 30.3584 46.4433 30.3688 46.3621 30.3007C46.2454 30.2016 46.2395 30.1809 46.3695 30.0907C46.6412 29.9013 46.8966 29.6928 47.1506 29.4812C47.2082 29.4339 47.2614 29.3806 47.3116 29.3244C47.3485 29.283 47.3603 29.2298 47.3249 29.1795C47.2909 29.1306 47.2392 29.1218 47.1846 29.1336C47.0945 29.1528 47.0207 29.2061 46.9468 29.2564C46.6751 29.4457 46.4241 29.6602 46.1686 29.8688C46.018 29.9916 45.9781 29.9886 45.8364 29.8806C45.7655 29.8259 45.7537 29.7815 45.829 29.7223C45.9575 29.6188 46.083 29.5108 46.21 29.4073C46.5703 29.1114 46.8833 28.7653 47.2111 28.4354C47.3204 28.3259 47.3145 28.3023 47.1698 28.2461C47.1107 28.2239 47.0901 28.1884 47.0723 28.1366C46.9158 27.6854 46.6234 27.323 46.3015 26.9843C45.3402 25.971 44.339 24.9976 43.2965 24.0701C42.9067 23.7225 42.9746 23.8497 43.0543 23.3483C43.2094 22.3764 43.3438 21.403 43.2965 20.4134ZM42.9583 27.6203C43.1415 27.465 43.3216 27.3067 43.5018 27.1499C43.8281 26.863 44.1397 26.5597 44.4483 26.2535C44.5723 26.1293 44.5768 26.1322 44.6993 26.2476C44.7865 26.3304 44.8706 26.4147 44.9563 26.4991C44.9873 26.5301 45.0183 26.5641 45.0227 26.5952C45.0213 26.6529 44.9976 26.681 44.971 26.7076C44.9075 26.7712 44.8455 26.8363 44.7791 26.897C44.3863 27.2653 43.9935 27.6366 43.5977 28.002C43.4427 28.1455 43.4397 28.141 43.2625 28.0109C43.1606 27.9354 43.0602 27.8555 42.9583 27.7801C42.8801 27.7239 42.8919 27.6765 42.9583 27.6203ZM42.8018 27.3925C42.6468 27.536 42.6423 27.5419 42.471 27.4029C42.3573 27.3097 42.155 27.255 42.1565 27.1144C42.158 26.9976 42.3411 26.9147 42.4474 26.823C42.8934 26.434 43.3378 26.042 43.7646 25.6307C43.8074 25.5893 43.8443 25.539 43.9049 25.5257C43.9728 25.5228 44.3361 25.8585 44.3435 25.9296C44.3494 25.9917 44.3006 26.0227 44.2637 26.0568C43.8384 26.4473 43.4132 26.8378 42.9879 27.2269C42.9244 27.2831 42.8624 27.3363 42.8018 27.3925ZM43.8207 28.2061C44.0688 27.9798 44.3228 27.7564 44.5664 27.5257C44.7614 27.3408 44.9474 27.1455 45.1379 26.9547C45.1793 26.9133 45.2162 26.863 45.2885 26.857C45.3122 26.8704 45.3402 26.8822 45.3624 26.9014C45.4953 27.0227 45.6267 27.1455 45.7581 27.2668C45.8201 27.3245 45.829 27.3718 45.7492 27.428C45.4288 27.6544 45.1852 27.9635 44.8987 28.2268C44.7333 28.3792 44.5664 28.5301 44.3981 28.6765C44.277 28.7815 44.2652 28.7801 44.1293 28.681C44.026 28.6055 43.927 28.5271 43.8281 28.4472C43.6967 28.3393 43.6967 28.3185 43.8207 28.2061ZM44.7422 28.7372C45.1438 28.4221 45.5218 28.0804 45.8748 27.712C46.0342 27.5449 46.0416 27.5479 46.2129 27.7091C46.272 27.7653 46.3458 27.8052 46.3857 27.8777C46.3857 27.9354 46.3399 27.9561 46.3104 27.9872C46.0505 28.2579 45.7611 28.4975 45.4805 28.7446C45.3284 28.8792 45.1704 29.0049 45.0198 29.138C44.943 29.2061 44.8706 29.2238 44.7791 29.1602C44.407 28.9028 44.4601 28.9576 44.7422 28.7372ZM45.7404 28.8925C46.0165 28.6632 46.2986 28.4369 46.5245 28.1543C46.5969 28.0656 46.6544 28.0715 46.7268 28.141C46.743 28.1573 46.7608 28.1706 46.777 28.1854C46.9557 28.3466 46.9601 28.3718 46.7844 28.5345C46.4329 28.8599 46.08 29.1839 45.7241 29.5064C45.5337 29.678 45.5307 29.6765 45.3225 29.5389C45.262 29.499 45.2029 29.4531 45.1187 29.3925C45.3461 29.2105 45.5455 29.0537 45.7404 28.8925ZM42.8343 24.4799C42.8697 24.4917 42.8934 24.4932 42.9096 24.505C43.2049 24.7388 43.2064 24.7772 42.9185 25.0154C42.8387 25.0805 42.7575 25.1426 42.6763 25.2062C42.663 25.1973 42.6497 25.1884 42.6364 25.1796C42.7029 24.9488 42.7472 24.7107 42.8343 24.4799ZM42.5803 25.5938C42.8062 25.4103 43.0366 25.2299 43.2581 25.039C43.3408 24.968 43.3925 24.9814 43.4678 25.0479C43.7129 25.2683 43.7188 25.2742 43.4826 25.4873C43.0839 25.8482 42.6793 26.2047 42.2761 26.5627C42.2599 26.576 42.2392 26.5849 42.1713 26.6233C42.2805 26.2949 42.3736 26.0124 42.4696 25.7299C42.4873 25.6722 42.5331 25.6307 42.5803 25.5938ZM40.2782 12.7228C40.7492 13.4314 41.0402 14.2168 41.3576 14.9964C41.777 16.0245 41.9498 17.1043 42.1122 18.1886C42.2392 19.0362 42.2968 19.8913 42.3337 20.7463C42.4016 22.3069 42.1742 23.832 41.7652 25.3349C41.5156 26.2565 41.2454 27.1706 40.8497 28.0434C40.6045 28.5848 40.3269 29.1085 40.0375 29.6262C39.9548 29.7756 39.8662 29.8348 39.6831 29.8111C38.7912 29.6972 37.8978 29.5981 37.0044 29.4975C36.3709 29.4265 35.7374 29.3659 35.1039 29.2993C34.9489 29.283 34.7938 29.2623 34.5783 29.2372C35.0921 28.8629 35.3328 28.3422 35.6636 27.8881C36.2159 27.1307 36.6279 26.2979 37.0103 25.4458C37.3943 24.5894 37.7915 23.7388 38.1828 22.8853C38.4146 22.3794 38.6273 21.8661 38.7912 21.3335C38.8148 21.2551 38.8946 21.1427 38.7912 21.0909C38.6819 21.0362 38.6509 21.1708 38.6066 21.2388C37.7915 22.4918 36.9852 23.7491 36.1642 24.9991C35.6237 25.8216 35.0567 26.6248 34.4188 27.3763C33.9521 27.9265 33.4324 28.4265 32.9259 28.9383C32.8432 29.0212 32.7501 29.0434 32.6394 29.0345C32.3928 29.0153 32.1462 29.002 31.8996 28.9798C30.987 28.894 30.0729 28.8792 29.1589 28.9088C28.3275 28.9354 27.4962 28.9591 26.6663 29.0182C26.1509 29.0537 25.6341 29.0848 25.1187 29.1129C24.249 29.1602 23.3881 29.2741 22.5286 29.4058C21.3946 29.5803 20.2634 29.7623 19.122 29.8762C18.6671 29.9206 18.2109 29.9442 17.7546 29.9783C17.5759 29.9916 17.3957 30.0019 17.2171 30.0226C16.7682 30.0759 16.3192 30.0419 15.8703 30.0241C15.8423 30.0226 15.8142 30.0152 15.7862 30.0108C15.7862 29.9324 15.8497 29.9265 15.8895 29.9013C16.5747 29.4664 17.2097 28.962 17.8609 28.4798C17.8963 28.4532 17.9332 28.425 17.9687 28.3984C18.1223 28.2875 18.14 28.2816 18.2596 28.4236C18.5018 28.7105 18.8325 28.7209 19.1692 28.6721C19.3863 28.641 19.5915 28.5641 19.785 28.462C20.5233 28.0759 21.2513 27.6721 21.8966 27.1351C22.0413 27.0153 22.1772 26.8852 22.2953 26.7402C22.3322 26.6943 22.378 26.6411 22.3441 26.5775C22.3042 26.502 22.2303 26.5168 22.1639 26.5331C21.6958 26.6455 21.2454 26.8097 20.8113 27.0198C20.2856 27.2757 19.7599 27.5331 19.2342 27.789C19.119 27.8452 19.0038 27.9014 18.8798 27.9325C18.7557 27.9635 18.6509 27.9487 18.552 27.8496C18.363 27.6618 18.2611 27.6544 18.0337 27.786C17.8446 27.8955 17.6793 28.039 17.5213 28.1884C16.8065 28.8599 16.0047 29.4132 15.1704 29.922C15.0567 29.9916 14.94 30.0256 14.8086 30.0182C14.497 29.999 14.1855 29.9664 13.8621 29.9723C13.865 29.8466 13.9448 29.8052 14.0024 29.7564C14.215 29.5774 14.4291 29.3999 14.6477 29.2298C15.7168 28.4043 16.7814 27.57 17.9569 26.897C18.8237 26.4014 19.7126 25.9488 20.6296 25.5538C21.5673 25.15 22.4651 24.6633 23.3733 24.2003C24.2091 23.7758 25.0419 23.3438 25.8349 22.8409C26.8951 22.1693 27.8919 21.4119 28.8458 20.5954C29.3597 20.156 29.8426 19.6827 30.3151 19.2004C31.2764 18.2197 32.1093 17.1384 32.7871 15.9446C33.109 15.3766 33.3851 14.7834 33.6258 14.174C33.8443 13.6207 34.1279 13.0985 34.4011 12.5719C34.5694 12.2494 34.8042 11.9758 35.0744 11.7317C35.6178 11.2376 36.2129 10.8264 36.9143 10.5838C37.4518 10.3974 37.9465 10.464 38.4353 10.7746C39.2165 11.2761 39.7761 11.9654 40.2782 12.7228ZM8.21972 20.443C7.91257 19.6457 7.70879 18.8262 7.59509 17.9815C7.57589 17.8425 7.58032 17.7138 7.64086 17.5866C7.96278 16.912 8.34081 16.2804 8.87388 15.7434C9.17365 15.4402 9.53838 15.2582 9.90755 15.0793C10.7744 14.6591 11.6973 14.4949 12.6542 14.4905C12.7959 14.4905 12.9392 14.4846 13.0809 14.492C13.2035 14.4979 13.2286 14.5275 13.2035 14.6503C13.0853 15.2139 13.0735 15.7849 13.0986 16.3558C13.1415 17.3395 13.233 18.3188 13.4899 19.2744C13.5933 19.6605 13.7498 20.0273 13.9078 20.3912C13.9226 20.4253 13.9403 20.4593 13.9551 20.4933C14.0467 20.7122 14.0393 20.7448 13.8089 20.8128C13.2478 20.9785 12.6763 21.1028 12.096 21.1826C11.7032 21.2359 11.3133 21.3173 10.9146 21.3291C10.3343 21.3454 9.76431 21.2581 9.19284 21.1782C9.02893 21.1545 8.87683 21.0865 8.72769 21.014C8.47961 20.8912 8.32161 20.7063 8.21972 20.443ZM8.55049 29.817C8.45894 29.854 8.38215 29.8629 8.28912 29.8658C8.29208 29.7726 8.32456 29.6868 8.40283 29.6721C8.48552 29.6558 8.50619 29.7519 8.55049 29.817ZM6.37241 26.6958C6.46248 26.5612 6.55551 26.4266 6.64854 26.2905C6.83608 26.4695 6.85823 26.5937 6.73862 26.7772C6.64559 26.9207 6.54813 27.0612 6.45215 27.2032C6.44476 27.215 6.42852 27.2195 6.40194 27.2387C6.21293 26.9621 6.21145 26.9354 6.37241 26.6958ZM6.16715 26.5331C6.15829 26.5449 6.14352 26.5508 6.11842 26.5715C5.93531 26.3275 5.9235 26.2653 6.06378 26.0449C6.15091 25.9059 6.25723 25.7787 6.35764 25.65C6.39751 25.5997 6.44772 25.5878 6.47725 25.6589C6.54222 25.8112 6.60572 25.9577 6.46691 26.1159C6.35469 26.2432 6.26756 26.394 6.16715 26.5331ZM6.60424 27.5345C6.69875 27.3807 6.79178 27.2269 6.88924 27.076C6.94831 26.9872 6.98079 26.9887 7.031 27.0745C7.03543 27.0804 7.03691 27.0878 7.04134 27.0952C7.23183 27.4473 7.23183 27.4473 6.98965 27.7727C6.92616 27.857 6.86414 27.9413 6.79916 28.0242C6.79178 28.033 6.77258 28.033 6.74305 28.0434C6.66626 27.9369 6.62492 27.8097 6.57619 27.6854C6.55551 27.6277 6.57619 27.5804 6.60424 27.5345ZM6.83017 20.9164C6.87004 20.3099 6.95421 19.7108 7.13141 19.1206C7.20525 19.6398 7.39721 20.1205 7.55965 20.6116C7.62019 20.7921 7.59509 20.8409 7.44004 20.9504C7.28942 21.0584 7.12255 21.0732 6.94683 21.0495C6.87152 21.0406 6.82427 21.0022 6.83017 20.9164ZM6.95864 28.2978C7.06792 28.1203 7.18457 27.9487 7.31157 27.7564C7.35734 27.8067 7.37506 27.8215 7.3854 27.8393C7.55522 28.1469 7.57737 28.0789 7.36768 28.3659C7.30123 28.4561 7.24069 28.5508 7.17424 28.641C7.15209 28.6706 7.12551 28.6987 7.08121 28.6736C6.98965 28.6218 6.90548 28.3851 6.95864 28.2978ZM7.42675 28.8318C7.50796 28.7091 7.56851 28.57 7.68073 28.4487C7.77229 28.5316 7.79591 28.6203 7.83726 28.6987C7.87122 28.7638 7.86975 28.8274 7.83283 28.891C7.74275 29.0463 7.65268 29.2017 7.56112 29.354C7.52421 29.4147 7.48581 29.4132 7.44151 29.3555C7.28794 29.1499 7.28056 29.0537 7.42675 28.8318ZM7.75309 29.7135C7.82988 29.5448 7.91552 29.3792 8.00412 29.2135C8.03513 29.1558 8.08239 29.1543 8.13112 29.2017C8.22858 29.2934 8.24335 29.3821 8.17099 29.499C8.09272 29.6262 8.01003 29.7505 7.93029 29.8762C7.90962 29.9073 7.8919 29.9413 7.8476 29.9383C7.78853 29.9294 7.7206 29.786 7.75309 29.7135ZM29.5133 18.1413C29.3405 18.2863 29.181 18.4445 29.0186 18.5999C28.9758 18.6413 28.9389 18.6916 28.8562 18.6886C28.834 18.6753 28.8 18.659 28.7705 18.6383C28.6317 18.5363 28.4914 18.4357 28.357 18.3292C28.2168 18.2197 28.2182 18.202 28.3585 18.0747C28.6849 17.7774 29.0083 17.4756 29.3405 17.1827C29.8573 16.7257 30.355 16.2493 30.8379 15.7567C31.0224 15.5689 31.0239 15.5689 31.2321 15.7375C31.3192 15.8085 31.4049 15.881 31.492 15.952C31.653 16.0866 31.6515 16.1103 31.554 16.2893C31.4019 16.5674 31.1539 16.7538 30.9235 16.9535C30.4569 17.3543 29.9843 17.7478 29.5133 18.1413ZM30.4214 17.8247C30.1039 18.2582 29.7938 18.6945 29.3833 19.0436C29.3228 19.0954 29.2726 19.1058 29.2106 19.0436C29.1367 18.9697 29.1648 18.9135 29.2283 18.8558C29.5059 18.6058 29.7806 18.3528 30.0596 18.1058C30.1733 18.0037 30.2767 17.8869 30.4214 17.8247ZM24.5413 17.2242C24.5458 17.0097 24.5709 16.9934 24.7584 17.0822C25.0774 17.233 25.3845 17.4046 25.6931 17.5762C26.5629 18.0585 27.3426 18.6679 28.1163 19.2848C28.233 19.378 28.3379 19.4874 28.4427 19.5939C28.5756 19.7315 28.5756 19.7448 28.422 19.875C28.205 20.0584 27.9849 20.2418 27.759 20.4149C27.4799 20.6294 27.1905 20.8321 26.9084 21.0436C26.7918 21.1309 26.6736 21.1531 26.5289 21.1249C26.2868 21.0761 26.0387 21.0554 25.798 21.0066C25.3963 20.9238 25.1069 20.6827 24.9489 20.3069C24.7436 19.8188 24.6403 19.3025 24.5871 18.7789C24.5531 18.4357 24.5207 18.091 24.5399 17.7774C24.5413 17.5688 24.5384 17.3972 24.5413 17.2242ZM30.7758 15.4195C30.764 15.4698 30.7182 15.4994 30.6798 15.5349C30.2708 15.9091 29.8662 16.2893 29.438 16.6428C28.9758 17.0259 28.5239 17.4194 28.1001 17.844C27.9451 18.0008 27.9421 17.9978 27.7693 17.8617C27.5242 17.6709 27.5227 17.6679 27.7634 17.4534C28.5077 16.7893 29.2622 16.1384 29.9548 15.418C30.0478 15.3204 30.1394 15.2213 30.228 15.1192C30.293 15.0452 30.3579 15.0275 30.4391 15.097C30.5366 15.1798 30.637 15.2568 30.736 15.3366C30.7596 15.3588 30.7788 15.381 30.7758 15.4195ZM30.0227 14.8692C30.0094 14.9121 29.9666 14.9446 29.9297 14.9816C29.4985 15.3988 29.0644 15.8115 28.611 16.2035C28.1917 16.5659 27.7634 16.918 27.3765 17.3174C27.2422 17.4549 27.2392 17.452 27.0768 17.3499C26.7814 17.165 26.7844 17.168 27.0384 16.9446C27.855 16.2272 28.6243 15.4609 29.3508 14.6503C29.3804 14.6162 29.4114 14.5837 29.4424 14.5512C29.4956 14.4964 29.5546 14.4772 29.6226 14.5231C29.7451 14.6074 29.8692 14.6932 29.9902 14.7804C30.0139 14.7982 30.0301 14.8248 30.0227 14.8692ZM29.1884 14.4343C28.8192 14.7967 28.453 15.1621 28.0809 15.5201C27.6379 15.9461 27.1905 16.3662 26.7445 16.7878C26.6958 16.8336 26.6471 16.881 26.5969 16.9268C26.5688 16.9535 26.5304 16.9757 26.495 16.9579C26.3591 16.8943 26.2277 16.8203 26.1169 16.7183C26.0623 16.6694 26.1125 16.6236 26.1539 16.5896C26.3192 16.449 26.4891 16.3129 26.6515 16.1695C27.3455 15.563 28.0026 14.9151 28.648 14.2583C28.8768 14.0245 28.9832 14.0231 29.2165 14.2538C29.2371 14.2745 29.2519 14.2997 29.2637 14.3145C29.2608 14.3781 29.2209 14.4032 29.1884 14.4343ZM28.3925 14.1029C27.5966 14.8751 26.7829 15.6281 25.9486 16.3573C25.7714 16.5126 25.767 16.5141 25.5573 16.4032C25.4849 16.3647 25.4155 16.3233 25.3417 16.2804C25.3624 16.1976 25.4081 16.1813 25.4436 16.1547C26.3665 15.4668 27.1683 14.6473 27.9495 13.8086C27.9805 13.776 28.0086 13.7405 28.041 13.7109C28.1651 13.6 28.1858 13.597 28.3334 13.6873C28.7026 13.9121 28.6376 13.8648 28.3925 14.1029ZM27.855 13.5719C27.1875 14.1873 26.5703 14.8544 25.8984 15.4668C25.6813 15.6636 25.4569 15.8499 25.2324 16.0378C25.129 16.1236 25.0301 16.1517 24.9046 16.0822C24.7865 16.0171 24.6595 15.9698 24.5384 15.9106C24.4764 15.881 24.469 15.8351 24.5162 15.7849C24.5576 15.742 24.6019 15.7005 24.6462 15.6591C25.4214 14.9491 26.1716 14.2154 26.907 13.4639C27.0015 13.3678 27.0901 13.2657 27.1831 13.1666C27.2318 13.1148 27.2865 13.0749 27.3618 13.1178C27.5316 13.2139 27.6999 13.3115 27.8683 13.4092C27.8948 13.424 27.914 13.4476 27.917 13.4802C27.9155 13.5246 27.883 13.5467 27.855 13.5719ZM26.8376 13.0394C26.5467 13.3411 26.2587 13.6473 25.9619 13.9447C25.4111 14.4964 24.8544 15.0423 24.3006 15.5896C24.1559 15.7316 24.1515 15.7316 23.9699 15.6517C23.9285 15.634 23.8886 15.6147 23.8488 15.594C23.6834 15.5082 23.679 15.4964 23.8192 15.3603C24.469 14.7272 25.0892 14.066 25.7109 13.4062C25.9117 13.1932 26.1066 12.9758 26.3089 12.7642C26.4492 12.6178 26.4595 12.6193 26.6338 12.7139C26.7135 12.7568 26.7918 12.7997 26.87 12.8441C26.8951 12.8589 26.9202 12.8781 26.9232 12.9151C26.9173 12.9698 26.873 13.0024 26.8376 13.0394ZM26.1391 12.5497C26.0948 12.6 26.0475 12.6488 26.0003 12.6962C25.2811 13.4181 24.5635 14.1429 23.8695 14.8899C23.7528 15.0156 23.6361 15.1443 23.5239 15.2745C23.456 15.3544 23.3807 15.3721 23.2847 15.3278C23.1488 15.2656 23.0115 15.2094 22.8387 15.1355C22.9495 14.9875 23.0794 14.9077 23.1902 14.8115C23.6878 14.3781 24.1426 13.8988 24.6078 13.4314C24.9459 13.0911 25.2826 12.7494 25.6223 12.4107C25.7729 12.2613 26.0195 12.282 26.142 12.4477C26.1686 12.4846 26.1671 12.5187 26.1391 12.5497ZM22.8668 16.1931C23.1931 16.3248 23.5077 16.486 23.8252 16.6384C23.9817 16.7138 23.9802 16.7197 23.9448 16.9017C23.8429 17.4253 23.7794 17.9549 23.7602 18.4889C23.741 19.0259 23.8192 19.5525 23.9654 20.0688C24.0407 20.3365 24.0407 20.335 23.7749 20.4386C23.4368 20.5702 23.0824 20.6309 22.7309 20.7093C21.8745 20.9001 21.018 21.0835 20.1482 21.2078C19.6432 21.2803 19.1367 21.3202 18.6258 21.2921C18.4914 21.2847 18.3556 21.2906 18.2212 21.2906C17.3603 21.3025 16.5201 21.156 15.6858 20.9593C15.4436 20.9031 15.2132 20.8143 14.9799 20.73C14.8352 20.6767 14.7451 20.5865 14.6816 20.4475C14.3464 19.7285 14.1057 18.9815 13.9654 18.2005C13.8503 17.557 13.7631 16.9106 13.7247 16.2567C13.6952 15.7538 13.679 15.2523 13.7321 14.7494C13.7543 14.5319 13.7617 14.5231 13.9758 14.5231C14.5162 14.5216 15.0537 14.5793 15.5898 14.6355C16.3872 14.7198 17.1846 14.81 17.9761 14.9372C19.6432 15.2094 21.2927 15.5571 22.8668 16.1931ZM4.60483 28.3659C3.8857 27.3304 3.29946 26.2269 2.79739 25.0731C2.21854 23.7417 1.70909 22.3853 1.39308 20.9637C1.20259 20.1057 1.06231 19.2389 0.992903 18.3602C0.911686 17.3395 0.930883 16.3159 0.969276 15.2967C1.01948 13.9299 1.16715 12.569 1.45658 11.2302C1.83313 9.49212 2.34258 7.79838 3.12964 6.19488C3.53277 5.37241 4.05847 4.63575 4.64766 3.9405C5.3727 3.08401 6.28676 2.4716 7.24069 1.91245C7.41789 1.8089 7.62019 1.77784 7.82545 1.76748C8.39987 1.73642 8.96248 1.8163 9.52214 1.92724C10.4347 2.10919 11.3355 2.34143 12.2377 2.56184C12.4489 2.61361 12.663 2.65355 12.8727 2.70976C13.4944 2.87544 14.1072 2.80739 14.7156 2.6432C15.2546 2.49823 15.7655 2.28966 16.2454 1.99972C16.839 1.64026 17.5021 1.47607 18.168 1.32075C19.1205 1.09886 20.0848 0.986436 21.0623 0.94058C21.5644 0.916912 22.0664 0.903598 22.5685 0.91987C23.2655 0.942059 23.9566 1.03673 24.6447 1.15803C25.3343 1.27933 25.9988 1.48642 26.6589 1.71719C27.7723 2.10475 28.8724 2.52634 29.9194 3.06922C31.3872 3.83251 32.7871 4.70083 34.0334 5.80288C34.7023 6.39458 35.352 7.00698 36.0077 7.61348C36.6249 8.18447 37.2274 8.77025 37.8166 9.37083C37.9406 9.49804 38.0617 9.62822 38.1843 9.80721C37.9569 9.75987 37.7708 9.70218 37.5774 9.68739C37.2067 9.66076 36.842 9.68887 36.4905 9.81756C35.4067 10.214 34.5103 10.8678 33.8 11.779C33.6701 11.9447 33.5756 12.1341 33.4781 12.3205C33.1149 13.0127 32.8033 13.7287 32.4917 14.4447C32.3441 14.7819 32.1816 15.1118 32.0236 15.4446C31.9985 15.4979 31.9823 15.5585 31.9188 15.5955C31.8316 15.5748 31.7711 15.5038 31.7061 15.4461C30.3476 14.2376 28.8355 13.2494 27.254 12.3633C26.5924 11.9935 25.925 11.6341 25.259 11.2746C24.4586 10.8427 23.6273 10.4817 22.7723 10.1726C21.8346 9.83235 20.9013 9.48029 19.9548 9.16521C18.8591 8.79836 17.7472 8.48476 16.6116 8.26435C16.4359 8.23032 16.2587 8.19186 16.0771 8.19334C16.0239 8.19334 15.9722 8.19186 15.9205 8.19778C15.8615 8.20518 15.7921 8.21701 15.795 8.29689C15.798 8.36198 15.86 8.37381 15.9102 8.38269C16.2572 8.44629 16.591 8.56168 16.9306 8.65635C18.1237 8.99066 19.2844 9.41964 20.4391 9.86342C21.3842 10.2273 22.3278 10.5956 23.2684 10.9684C23.9876 11.2539 24.6728 11.6134 25.3446 11.995C25.513 12.0912 25.513 12.103 25.3771 12.2302C24.4956 13.0571 23.6539 13.9254 22.8122 14.7923C22.8018 14.8026 22.7915 14.813 22.7797 14.8248C22.5596 15.0393 22.5404 15.0408 22.2363 14.8884C22.3514 14.7671 22.4489 14.6547 22.5567 14.5526C23.1296 14.0112 23.6967 13.4639 24.2224 12.8752C24.2578 12.8367 24.2933 12.7983 24.3243 12.7554C24.3508 12.7198 24.3819 12.674 24.3376 12.6355C24.2962 12.6 24.2504 12.6281 24.215 12.6548C24.1101 12.7391 24.0068 12.8264 23.9049 12.9166C23.2936 13.4595 22.6896 14.0112 22.1004 14.5807C21.8568 14.8159 21.7992 14.8233 21.4581 14.6296C21.588 14.5097 21.7106 14.3899 21.839 14.2805C22.1152 14.0453 22.3411 13.7642 22.5759 13.492C22.6099 13.4521 22.6896 13.4003 22.6246 13.3456C22.5715 13.2997 22.5153 13.3692 22.4725 13.4062C22.3116 13.5423 22.1595 13.6858 21.9985 13.8204C21.746 14.0334 21.4891 14.2405 21.2336 14.4491C21.1701 14.5009 21.1037 14.56 21.0121 14.5408C20.9265 14.5231 20.8068 14.5349 20.7699 14.4535C20.7315 14.3663 20.8482 14.3234 20.8999 14.2671C21.0372 14.1177 21.1834 13.9772 21.3222 13.8293C21.3606 13.7893 21.4315 13.742 21.3724 13.6814C21.3281 13.634 21.2735 13.6873 21.2351 13.7169C21.0933 13.8278 20.9368 13.9284 20.8216 14.063C20.5647 14.3618 20.2841 14.3944 19.9061 14.2997C18.8665 14.0364 17.8122 13.8396 16.746 13.7124C16.1361 13.6399 15.5233 13.5882 14.909 13.5527C14.4513 13.5275 13.995 13.5172 13.5372 13.5201C12.6778 13.5231 11.8316 13.6222 11.0136 13.9032C10.9634 13.9195 10.9132 13.9343 10.8615 13.9461C9.39072 14.2893 8.28617 15.1636 7.43413 16.3751C6.67512 17.4564 6.24689 18.6783 6.02244 19.9756C5.89692 20.7019 5.83195 21.4356 5.84228 22.1737C5.85262 22.8912 5.98847 23.5923 6.13762 24.2905C6.1893 24.5331 6.23951 24.7757 6.30596 25.0154C6.3414 25.147 6.31334 25.2432 6.22769 25.3438C6.08446 25.5154 5.95303 25.6973 5.80537 25.8911C5.71234 25.7816 5.67985 25.6588 5.63407 25.5435C5.45244 25.0893 5.3092 24.6219 5.18221 24.1515C4.92232 23.1944 4.65356 22.2403 4.49261 21.2596C4.29916 20.0673 4.20613 18.8676 4.29621 17.6665C4.40991 16.1473 4.70082 14.6577 5.27524 13.2391C5.66213 12.2835 6.13762 11.3708 6.7401 10.5291C7.13289 9.98176 7.60542 9.51283 8.14145 9.10604C8.73212 8.65635 9.40253 8.38565 10.1202 8.22737C10.2871 8.19038 10.4628 8.19926 10.6341 8.18003C10.705 8.17263 10.8113 8.17707 10.8142 8.08536C10.8172 7.99069 10.705 8.00104 10.637 7.98329C10.2014 7.86939 9.77465 7.94187 9.34937 8.04838C8.61251 8.23328 7.9864 8.62381 7.40607 9.09864C6.64264 9.72141 6.09922 10.5172 5.61635 11.3649C4.59154 13.1621 4.04518 15.1118 3.78676 17.1502C3.68782 17.9342 3.7085 18.7241 3.75575 19.5126C3.803 20.3084 3.89013 21.0983 4.03779 21.8823C4.14411 22.4444 4.30064 22.9932 4.45126 23.5435C4.66095 24.3039 4.85439 25.0701 5.16006 25.7994C5.4421 26.471 5.7463 27.1337 6.0372 27.8023C6.2779 28.3555 6.56733 28.8792 6.92173 29.3688C7.05463 29.5522 7.15504 29.7549 7.2525 29.9576C7.31009 30.0759 7.30861 30.0818 7.17128 30.1232C6.90548 30.2031 6.63673 30.2741 6.37241 30.3584C6.24541 30.3984 6.15681 30.3688 6.07707 30.2667C5.58387 29.6395 5.06408 29.0286 4.60483 28.3659ZM16.7268 45.9172C16.6692 45.9053 16.6072 45.9068 16.5481 45.9009C16.5481 45.9039 16.5467 45.9083 16.5467 45.9113C16.2055 45.8728 15.863 45.8373 15.5218 45.7944C15.3417 45.7707 15.3402 45.7559 15.42 45.5829C15.5588 45.2841 15.6917 44.9823 15.8305 44.6835C15.9161 44.4986 15.9191 44.4971 16.1169 44.5119C16.4743 44.54 16.8316 44.5696 17.189 44.6036C17.3322 44.6169 17.3455 44.6332 17.2953 44.7737C17.1757 45.1125 17.0487 45.4497 16.9262 45.7885C16.8937 45.8861 16.839 45.9394 16.7268 45.9172ZM18.326 45.9911C17.9657 45.9956 17.6069 45.9734 17.2481 45.9482C17.1609 45.9423 17.1211 45.9039 17.1609 45.8166C17.3219 45.4601 17.4681 45.0992 17.601 44.7308C17.632 44.6435 17.6911 44.6288 17.7767 44.6317C17.9643 44.6391 18.1518 44.6332 18.3379 44.6332C18.3379 44.6421 18.3379 44.6495 18.3379 44.6583C18.5106 44.6583 18.6834 44.6583 18.8547 44.6583C19.1101 44.6598 19.1146 44.6643 19.0083 44.9069C18.9536 45.0311 18.8946 45.1524 18.834 45.2722C18.7366 45.4675 18.6332 45.6583 18.5372 45.8536C18.4914 45.9468 18.4294 45.9897 18.326 45.9911ZM19.0215 45.9941C18.992 45.9941 18.961 45.9971 18.9315 45.9941C18.8119 45.9837 18.7897 45.9586 18.8458 45.8565C19.0422 45.503 19.2135 45.1376 19.37 44.7634C19.4129 44.6613 19.6329 44.6051 19.723 44.6613C19.7525 44.6791 19.7599 44.7086 19.7525 44.7382C19.7407 44.7811 19.7244 44.824 19.7082 44.8654C19.5797 45.1761 19.4513 45.4882 19.3213 45.7988C19.2416 45.9897 19.2327 45.9956 19.0215 45.9941ZM20.0774 46.0266C20.0183 46.0252 19.9578 46.0266 19.8987 46.0266C19.5605 46.0266 19.5561 46.0178 19.6875 45.7057C19.8116 45.4083 19.9341 45.111 20.0493 44.8107C20.0995 44.6761 20.1704 44.5977 20.3254 44.6007C20.4436 44.6036 20.5632 44.574 20.6813 44.5711C20.8024 44.5681 20.8275 44.5992 20.7803 44.6998C20.5942 45.1006 20.4155 45.5045 20.2531 45.9157C20.2206 45.9956 20.1615 46.0281 20.0774 46.0266ZM20.9324 46.0015C20.8142 46.0015 20.6592 46.0858 20.5883 45.9941C20.513 45.8965 20.6429 45.7781 20.6902 45.6746C20.8364 45.3536 20.9973 45.0385 21.1435 44.7175C21.207 44.577 21.2941 44.4986 21.4521 44.5119C21.5319 44.5178 21.6116 44.469 21.6914 44.503C21.7135 44.5933 21.6589 44.6539 21.6308 44.7205C21.4699 45.1006 21.2631 45.4616 21.1317 45.8536C21.0963 45.9542 21.0357 46.0015 20.9324 46.0015ZM22.3854 45.9261C22.0428 45.9512 21.7002 45.9704 21.3089 45.9956C21.427 45.7693 21.5142 45.5962 21.6072 45.4261C21.7593 45.1495 21.9084 44.8714 22.0384 44.5844C22.0783 44.4956 22.1314 44.4394 22.2363 44.4305C22.4902 44.4083 22.7428 44.3743 22.9967 44.3507C23.1533 44.3359 23.1902 44.3773 23.1474 44.5311C23.078 44.7782 22.9761 45.0119 22.855 45.2382C22.759 45.4172 22.6615 45.5947 22.5656 45.7737C22.5242 45.8477 22.4755 45.9187 22.3854 45.9261ZM23.741 45.7959C23.4589 45.824 23.1754 45.8536 22.8934 45.8817C22.8195 45.8891 22.7974 45.8536 22.8269 45.787C22.8358 45.7663 22.8476 45.7471 22.8594 45.7278C23.0898 45.3314 23.2773 44.9142 23.4176 44.4779C23.4604 44.3447 23.5357 44.2841 23.6686 44.2649C23.9418 44.2249 24.215 44.1761 24.4882 44.1302C24.5177 44.1258 24.5487 44.1214 24.5753 44.1495C24.6004 44.2205 24.5502 44.2737 24.5221 44.3314C24.3184 44.7501 24.1234 45.1716 23.9654 45.608C23.9211 45.7234 23.8576 45.784 23.741 45.7959ZM25.1261 45.4852C25.0936 45.5562 25.0552 45.6154 24.9681 45.6258C24.7687 45.6524 24.5694 45.6894 24.3686 45.7101C24.2534 45.7219 24.2327 45.6864 24.2726 45.5799C24.2829 45.5518 24.2977 45.5252 24.311 45.4986C24.531 45.0637 24.7481 44.6288 24.9386 44.1805C24.9873 44.0652 25.0596 43.9986 25.1822 43.9794C25.4303 43.9394 25.668 43.8477 25.9205 43.8211C25.9442 43.9202 25.8895 43.9794 25.8541 44.0415C25.5972 44.5163 25.3491 44.9956 25.1261 45.4852ZM25.9604 45.4912C25.7847 45.4941 25.6134 45.5651 25.4126 45.5341C25.4687 45.4231 25.5204 45.324 25.5691 45.2249C25.7965 44.7693 26.0416 44.3226 26.241 43.8521C26.2794 43.7619 26.337 43.7042 26.4315 43.6806C26.7002 43.614 26.969 43.5459 27.2377 43.4794C27.2658 43.472 27.2968 43.4646 27.3263 43.4912C27.3396 43.5711 27.2865 43.6303 27.2525 43.6939C27.0546 44.0637 26.8523 44.4305 26.653 44.8003C26.5954 44.9054 26.523 45.0074 26.492 45.1213C26.4152 45.4009 26.2233 45.4882 25.9604 45.4912ZM27.8033 44.8891C27.7605 45.1628 27.5951 45.2752 27.3308 45.2944C27.1226 45.3092 26.9158 45.3506 26.7091 45.3787C26.6884 45.3817 26.6677 45.3713 26.6471 45.3684C26.6308 45.2959 26.681 45.2515 26.7106 45.2027C27.0413 44.6509 27.381 44.1021 27.6261 43.5045C27.6542 43.435 27.6866 43.364 27.7679 43.3418C28.0159 43.2708 28.2655 43.2013 28.5165 43.1318C28.5461 43.2471 28.487 43.3152 28.456 43.3877C28.267 43.8196 28.075 44.2515 27.886 44.682C27.855 44.7501 27.8151 44.8181 27.8033 44.8891ZM29.1604 44.7367C29.1175 44.8344 29.057 44.8935 28.9507 44.9172C28.6598 44.9823 28.3689 45.0563 28.078 45.1243C28.0588 45.1287 28.0366 45.1184 28.0145 45.1154C27.9997 45.0355 28.0543 44.9853 28.0853 44.929C28.3984 44.3728 28.6701 43.7989 28.8946 43.2013C28.9536 43.0445 29.0452 42.9587 29.2032 42.9113C29.5029 42.8196 29.7968 42.7116 30.0907 42.6125C30.1482 42.6761 30.0995 42.7205 30.0818 42.7634C29.8913 43.219 29.6757 43.6643 29.4557 44.1066C29.3523 44.3137 29.2549 44.5237 29.1604 44.7367ZM31.9601 43.9246C31.2085 44.1998 30.4598 44.4867 29.692 44.7131C29.6299 44.7308 29.5694 44.7634 29.4764 44.7515C29.6048 44.5149 29.723 44.293 29.8455 44.0726C30.1113 43.5933 30.352 43.1022 30.5366 42.5859C30.575 42.4794 30.6311 42.4069 30.7404 42.367C31.5407 42.0697 32.3381 41.7679 33.137 41.4691C33.1769 41.4543 33.2197 41.4306 33.2773 41.4632C33.298 41.543 33.2507 41.6155 33.2227 41.688C33.0159 42.2427 32.7723 42.7841 32.567 43.3388C32.4518 43.6495 32.2628 43.8122 31.9601 43.9246ZM35.448 42.2649C34.6624 42.6732 33.868 43.0608 33.0706 43.4454C32.9908 43.4838 32.9111 43.5267 32.821 43.5356C32.7679 43.4675 32.8181 43.4158 32.8417 43.367C33.0676 42.8684 33.3083 42.3744 33.487 41.8552C33.5357 41.7132 33.5933 41.5711 33.6169 41.4247C33.6391 41.293 33.707 41.2324 33.8207 41.188C34.2312 41.0238 34.6432 40.8626 35.0478 40.6836C35.5204 40.475 35.987 40.2487 36.4551 40.0312C36.5215 40.0002 36.5821 39.9499 36.6781 39.9499C36.6736 40.0623 36.622 40.1392 36.5821 40.2191C36.2823 40.8241 35.9781 41.4277 35.6798 42.0342C35.6282 42.1407 35.5529 42.2102 35.448 42.2649ZM48.7203 31.3466C48.6406 31.7519 48.4796 32.1291 48.2241 32.4471C47.6025 33.2193 46.9601 33.9737 46.2218 34.6409C45.5041 35.2902 44.7746 35.9278 44.0437 36.5609C43.2153 37.2784 42.3662 37.9706 41.4979 38.6393C40.4185 39.4706 39.2622 40.1792 38.0794 40.8493C37.44 41.2117 36.8036 41.58 36.1465 41.9099C36.08 41.9424 36.018 41.9883 35.9073 42.0016C36.1302 41.6111 36.3429 41.2487 36.5466 40.8818C36.7209 40.5667 36.9099 40.2576 37.0399 39.9203C37.1063 39.7472 37.22 39.6422 37.3824 39.5579C38.7941 38.8227 40.166 38.0195 41.4979 37.1482C41.8627 36.91 42.2082 36.6452 42.5478 36.3731C42.5892 36.3405 42.629 36.3065 42.6645 36.268C42.6866 36.2458 42.6985 36.2133 42.6674 36.1911C42.6527 36.1808 42.6217 36.1763 42.6054 36.1852C42.5124 36.234 42.4223 36.2858 42.3308 36.339C40.5366 37.373 38.7543 38.4263 36.8863 39.3242C35.5263 39.978 34.1338 40.5534 32.7162 41.0682C31.7711 41.4114 30.826 41.7501 29.8795 42.0889C29.088 42.3714 28.2773 42.5918 27.4637 42.8019C26.3532 43.0889 25.2413 43.3699 24.1116 43.5726C23.484 43.685 22.8505 43.753 22.2171 43.8226C21.3311 43.9202 20.4421 43.9882 19.5517 44.0356C18.8783 44.0711 18.2035 44.0696 17.5286 44.0193C17.2156 43.9956 16.8996 43.9882 16.5865 43.9675C14.7141 43.8433 12.8535 43.6421 11.0357 43.1436C9.84701 42.8182 8.68339 42.4217 7.57294 41.8847C6.79473 41.509 6.04606 41.08 5.36532 40.5431C5.23537 40.441 5.11724 40.3256 5.00944 40.1999C4.97843 40.1629 4.94447 40.0963 4.8854 40.1392C4.83224 40.1777 4.87211 40.2369 4.89278 40.2827C4.97843 40.4795 5.11281 40.6377 5.27229 40.7783C5.89692 41.3256 6.59391 41.7664 7.3219 42.1584C8.58889 42.8433 9.94004 43.3181 11.3222 43.7072C12.5301 44.0474 13.7661 44.2441 15.0124 44.3862C15.1615 44.4039 15.3107 44.4187 15.4598 44.4365C15.5543 44.4468 15.5972 44.4912 15.5543 44.5888C15.4022 44.932 15.2501 45.2752 15.0995 45.6199C15.0523 45.7293 14.9622 45.719 14.8706 45.7042C14.5458 45.6494 14.2194 45.5947 13.896 45.537C12.8565 45.3506 11.808 45.1983 10.7803 44.9483C8.98906 44.5134 7.32781 43.7841 5.86 42.6554C4.61665 41.6998 3.58003 40.549 2.75752 39.2117C2.52864 38.8404 2.33667 38.4499 2.1639 38.049C1.91139 37.4647 1.80802 36.8612 1.85675 36.2237C1.92173 35.3879 2.12698 34.598 2.51978 33.8554C2.78262 33.3583 3.18576 32.99 3.59479 32.6246C4.36857 31.9324 5.28115 31.4856 6.24689 31.135C7.07382 30.8362 7.92143 30.6069 8.78971 30.4723C9.58416 30.3481 10.386 30.3214 11.1893 30.3925C11.4433 30.4146 11.6973 30.4368 11.9513 30.4427C12.4386 30.4546 12.9214 30.5256 13.4087 30.5552C13.8724 30.5833 14.3361 30.6232 14.7998 30.6247C15.4377 30.6262 16.0756 30.6336 16.712 30.6143C17.4016 30.5936 18.0898 30.5271 18.7794 30.5507C19.3863 30.5714 19.9932 30.5552 20.5986 30.53C21.2498 30.5034 21.8981 30.4368 22.5493 30.3865C22.9967 30.351 23.4456 30.3081 23.8931 30.2756C24.7082 30.2164 25.5218 30.1602 26.337 30.104C26.6441 30.0833 26.9513 30.0744 27.2569 30.0567C28.583 29.9827 29.9105 29.962 31.2365 30.0093C31.8568 30.0315 32.477 30.0936 33.0957 30.1632C33.7218 30.2342 34.3479 30.2948 34.974 30.3614C35.764 30.4457 36.554 30.53 37.3426 30.6188C38.1695 30.712 38.995 30.8096 39.8219 30.9043C40.5514 30.9886 41.2808 31.0773 42.0103 31.1543C42.4504 31.2001 42.8919 31.2282 43.3319 31.2608C44.0186 31.314 44.7097 31.314 45.3963 31.3836C45.4849 31.3924 45.5765 31.388 45.6666 31.3895C46.1081 31.3983 46.5511 31.4102 46.9926 31.4235C47.5316 31.4412 48.0735 31.4442 48.5874 31.2282C48.7129 31.1705 48.7484 31.2046 48.7203 31.3466Z" fill="black"/>
<path d="M39.0082 37.0373C38.9492 37.0492 38.8916 37.0625 38.8325 37.0773C38.4973 37.1616 38.1724 37.2755 37.852 37.4057C37.2613 37.6453 36.6884 37.9249 36.1154 38.203C36.0519 38.234 35.9929 38.2888 35.888 38.274C35.9471 38.1734 36.0003 38.0861 36.0519 37.9974C36.1642 37.8095 36.2513 37.6113 36.2956 37.3953C36.3798 36.9782 36.238 36.6172 35.891 36.3731C35.7034 36.2415 35.4923 36.1661 35.2723 36.1128C34.7303 35.9797 34.1854 36.0063 33.642 36.0936C32.505 36.2755 31.4034 36.5936 30.3343 37.0151C29.0023 37.5403 27.7457 38.2059 26.6456 39.1379C26.2321 39.487 25.8496 39.8686 25.5366 40.3139C25.352 40.5757 25.2161 40.8568 25.1659 41.1748C25.1261 41.4233 25.1822 41.6526 25.3136 41.8641C25.3653 41.9455 25.4435 41.9913 25.544 41.9618C25.6444 41.9337 25.6842 41.8552 25.6946 41.7591C25.699 41.7221 25.6961 41.6837 25.6887 41.6467C25.6163 41.3138 25.7226 41.0254 25.9043 40.7547C26.1228 40.4293 26.3886 40.1438 26.6751 39.8775C27.4297 39.1778 28.2847 38.6246 29.2017 38.169C30.7847 37.382 32.4489 36.8524 34.212 36.6572C34.5383 36.6217 34.8544 36.6616 35.1704 36.7237C35.2885 36.7474 35.4007 36.7918 35.5041 36.8554C35.6902 36.9708 35.7448 37.0995 35.702 37.3125C35.6798 37.4234 35.6385 37.5284 35.5897 37.6305C35.4362 37.95 35.2265 38.2355 35.0242 38.5225C34.937 38.6453 34.8425 38.7621 34.7776 38.8982C34.7244 39.0092 34.7303 39.1201 34.816 39.2133C34.8987 39.3035 35.0035 39.3331 35.1231 39.2991C35.2176 39.2725 35.3018 39.2237 35.3874 39.1748C36.0578 38.7917 36.7415 38.4337 37.4415 38.1054C37.9435 37.8701 38.4323 37.6068 38.9004 37.3066C38.9565 37.2696 39.0141 37.2326 39.0658 37.1912C39.1057 37.1601 39.1618 37.1261 39.1278 37.064C39.1057 37.0166 39.0525 37.0285 39.0082 37.0373Z" fill="black"/>
<path d="M21.2387 4.43764C22.1631 5.91393 23.3828 7.05739 24.9983 7.74376C26.0275 8.18014 27.0981 8.40351 28.2204 8.31032C28.7269 8.26742 29.2068 8.12837 29.6513 7.87689C30.5668 7.36064 30.8681 6.56776 30.527 5.57518C30.5137 5.53524 30.4782 5.49382 30.5314 5.43909C30.7042 5.49382 30.8695 5.57814 31.0334 5.6669C31.5222 5.9302 31.9977 6.2157 32.4732 6.50415C33.1407 6.90799 33.8111 7.30738 34.5036 7.66684C34.5789 7.70678 34.6542 7.76299 34.7576 7.74376C34.7561 7.65205 34.6897 7.62246 34.6395 7.58548C33.7092 6.9139 32.7877 6.22605 31.8205 5.60625C31.314 5.28229 30.7928 4.98644 30.2464 4.73645C30.0707 4.65657 29.9525 4.66692 29.8743 4.76159C29.8004 4.85035 29.8137 4.95242 29.9082 5.11218C30.0751 5.39175 30.1947 5.69204 30.2612 6.01008C30.3232 6.30889 30.2803 6.59143 30.0972 6.84734C29.9245 7.09141 29.7104 7.28519 29.4505 7.42868C29.0001 7.67868 28.5098 7.77926 28.0018 7.78814C27.2295 7.79997 26.4809 7.64909 25.7529 7.39762C24.7561 7.05147 23.8583 6.53078 23.0786 5.8163C22.5795 5.35921 22.1188 4.86514 21.7555 4.28823C21.4824 3.85481 21.3022 3.39329 21.3376 2.8652C21.3819 2.20989 21.6226 1.917 22.2635 1.77351C22.454 1.73061 22.6445 1.69215 22.835 1.64777C22.9059 1.6315 23.0048 1.61671 22.9945 1.52352C22.9841 1.42736 22.8837 1.4392 22.8114 1.44068C22.4496 1.44512 22.0922 1.49245 21.7482 1.60339C21.4262 1.70694 21.187 1.91552 21.0438 2.22616C20.871 2.60337 20.7942 2.99241 20.8562 3.40956C20.9153 3.77937 21.0423 4.12404 21.2387 4.43764Z" fill="black"/>
<path d="M36.3165 11.5187C36.2191 11.5927 36.1541 11.6947 36.0891 11.7953C35.7391 12.3293 35.3833 12.8574 35.0067 13.3737C34.8118 13.6399 34.6272 13.9136 34.4382 14.1843C34.4042 14.2331 34.3717 14.2849 34.3466 14.3396C34.3097 14.421 34.3082 14.5024 34.3791 14.5674C34.4426 14.6251 34.5165 14.6192 34.5888 14.5822C34.6287 14.5615 34.6671 14.5364 34.7055 14.5157C34.9639 14.3811 35.1529 14.4521 35.2563 14.7272C35.2873 14.8115 35.3109 14.8988 35.3094 14.9905C35.3065 15.2139 35.178 15.5881 34.9905 15.8958C34.6922 16.3899 34.2994 16.8011 33.846 17.1532C33.6733 17.2878 33.4784 17.3839 33.2672 17.4475C33.1535 17.4816 33.0516 17.4919 32.9482 17.412C32.8404 17.3292 32.7371 17.3632 32.6455 17.4505C32.5909 17.5023 32.5377 17.5555 32.4875 17.6103C31.8333 18.3144 31.2383 19.0688 30.6195 19.804C30.5841 19.8469 30.5132 19.9016 30.5678 19.9549C30.624 20.0096 30.6756 19.9342 30.7155 19.8987C31.0758 19.5806 31.4391 19.267 31.7625 18.9105C32.0844 18.5555 32.4152 18.2049 32.7371 17.8499C32.7947 17.7863 32.8478 17.7567 32.932 17.7907C33.0723 17.8469 33.2126 17.8233 33.3499 17.7774C33.5064 17.7256 33.66 17.6665 33.8017 17.5777C34.3865 17.2109 34.8236 16.702 35.1883 16.1251C35.3788 15.8248 35.525 15.5053 35.5885 15.1517C35.6742 14.6799 35.4822 14.2953 35.0584 14.103C34.9624 14.0601 34.9491 14.0142 35.0038 13.9328C35.0377 13.884 35.0702 13.8322 35.1027 13.7834C35.4704 13.2435 35.8174 12.6903 36.1482 12.1267C36.2427 11.9654 36.3269 11.7968 36.4524 11.6533C36.4908 11.6104 36.5543 11.5631 36.4952 11.501C36.4406 11.4418 36.3726 11.4758 36.3165 11.5187Z" fill="black"/>
</g>
<defs>
<clipPath id="clip0_101_376">
<rect width="49.6338" height="46.91" fill="white"/>
</clipPath>
</defs>
</svg>
