<svg xmlns="http://www.w3.org/2000/svg" width="35" height="35" viewBox="0 0 35 35" fill="none">
  <path d="M24.0246 10.9725C23.6142 10.5621 23.0576 10.3315 22.4773 10.3315C21.8969 10.3315 21.3403 10.5621 20.93 10.9725C20.5196 11.3828 20.2891 11.9394 20.2891 12.5197C20.2891 13.1001 20.5196 13.6567 20.93 14.067C21.3403 14.4774 21.8969 14.7079 22.4773 14.7079C23.0576 14.7079 23.6142 14.4774 24.0246 14.067C24.4349 13.6567 24.6655 13.1001 24.6655 12.5197C24.6655 11.9394 24.4349 11.3828 24.0246 10.9725Z" fill="white"/>
  <path d="M32.0875 2.91368L33.2658 18.2335L17.3233 34.176L0.82373 17.6764L16.7662 1.73535L32.0875 2.91368ZM19.3839 9.4266C18.9723 9.83169 18.6449 10.3143 18.4207 10.8465C18.1965 11.3787 18.0799 11.9501 18.0776 12.5276C18.0754 13.1051 18.1874 13.6774 18.4074 14.2114C18.6274 14.7454 18.951 15.2305 19.3594 15.6389C19.7678 16.0472 20.253 16.3706 20.7871 16.5905C21.3211 16.8104 21.8934 16.9223 22.4709 16.9199C23.0485 16.9175 23.6198 16.8007 24.152 16.5764C24.6842 16.3521 25.1667 16.0246 25.5716 15.6129C26.381 14.79 26.8324 13.6807 26.8276 12.5266C26.8227 11.3724 26.362 10.267 25.5458 9.45096C24.7296 8.63495 23.624 8.17452 22.4699 8.16995C21.3158 8.16539 20.2066 8.61707 19.3839 9.4266Z" fill="#ffffff"/>
</svg>