<svg xmlns="http://www.w3.org/2000/svg" width="45" height="45" viewBox="0 0 45 45" fill="none">
  <path d="M41.25 15.3037V15.4406C41.25 17.0531 41.25 17.8612 40.8619 18.5212C40.4737 19.1812 39.7669 19.5731 38.3569 20.3587L36.87 21.1837C37.8937 17.7187 38.2369 13.9949 38.3625 10.8112L38.3812 10.3968L38.385 10.2993C39.6056 10.7231 40.2919 11.0399 40.7194 11.6324C41.25 12.3693 41.25 13.3481 41.25 15.3037ZM3.75 15.3037V15.4406C3.75 17.0531 3.75 17.8612 4.13813 18.5212C4.52625 19.1812 5.23312 19.5731 6.64313 20.3587L8.13188 21.1837C7.10625 17.7187 6.76312 13.9949 6.6375 10.8112L6.61875 10.3968L6.61688 10.2993C5.39438 10.7231 4.70812 11.0399 4.28062 11.6324C3.75 12.3693 3.75 13.3499 3.75 15.3037Z" fill="white"/>
  <path fill-rule="evenodd" clip-rule="evenodd" d="M22.5002 3.74995C25.8452 3.74995 28.5996 4.04433 30.7071 4.40058C32.8427 4.76058 33.9096 4.94058 34.8021 6.03933C35.6946 7.13808 35.6458 8.32495 35.5521 10.6987C35.2296 18.8531 33.4708 29.0362 23.9064 29.9362V36.5625H26.5877C27.021 36.5627 27.4408 36.713 27.7758 36.9879C28.1108 37.2627 28.3403 37.6451 28.4252 38.07L28.7814 39.8437H33.7502C34.1232 39.8437 34.4808 39.9919 34.7446 40.2556C35.0083 40.5193 35.1564 40.877 35.1564 41.25C35.1564 41.6229 35.0083 41.9806 34.7446 42.2443C34.4808 42.508 34.1232 42.6562 33.7502 42.6562H11.2502C10.8772 42.6562 10.5195 42.508 10.2558 42.2443C9.9921 41.9806 9.84394 41.6229 9.84394 41.25C9.84394 40.877 9.9921 40.5193 10.2558 40.2556C10.5195 39.9919 10.8772 39.8437 11.2502 39.8437H16.2189L16.5752 38.07C16.6601 37.6451 16.8896 37.2627 17.2246 36.9879C17.5596 36.713 17.9794 36.5627 18.4127 36.5625H21.0939V29.9362C11.5314 29.0362 9.77269 18.8512 9.45019 10.6987C9.35457 8.32495 9.30769 7.1362 10.2002 6.03933C11.0908 4.94058 12.1577 4.76058 14.2933 4.40058C17.0061 3.95597 19.7512 3.73834 22.5002 3.74995ZM24.2852 11.6231L24.1014 11.2931C23.3889 10.0125 23.0327 9.37495 22.5002 9.37495C21.9677 9.37495 21.6114 10.0125 20.8989 11.2931L20.7152 11.6231C20.5127 11.9868 20.4114 12.1668 20.2539 12.2868C20.0946 12.4068 19.8977 12.4518 19.5039 12.54L19.1477 12.6225C17.7639 12.9356 17.0721 13.0912 16.9071 13.62C16.7421 14.1506 17.2146 14.7018 18.1577 15.8043L18.4014 16.0893C18.6696 16.4025 18.8046 16.5581 18.8646 16.7531C18.9246 16.9481 18.9039 17.1562 18.8646 17.5743L18.8271 17.955C18.6846 19.4268 18.6133 20.1637 19.0427 20.49C19.4739 20.8162 20.1227 20.5181 21.4183 19.9218L21.7521 19.7681C22.1214 19.5993 22.3052 19.515 22.5002 19.515C22.6952 19.515 22.8789 19.5993 23.2483 19.7681L23.5821 19.9218C24.8777 20.52 25.5264 20.8162 25.9577 20.49C26.3889 20.1637 26.3158 19.4268 26.1733 17.955L26.1358 17.5743C26.0964 17.1562 26.0758 16.9481 26.1358 16.7531C26.1958 16.56 26.3308 16.4025 26.5989 16.0893L26.8427 15.8043C27.7858 14.7018 28.2583 14.1506 28.0933 13.62C27.9283 13.0912 27.2364 12.9356 25.8527 12.6225L25.4964 12.54C25.1027 12.4518 24.9058 12.4087 24.7464 12.2868C24.5889 12.1668 24.4877 11.9868 24.2852 11.6231Z" fill="white"/>
</svg>