<svg xmlns="http://www.w3.org/2000/svg" width="50" height="50" viewBox="0 0 50 50" fill="none">
  <path d="M43.75 22.9167V18.75H39.5833V14.5833C39.58 13.4793 39.14 12.4214 38.3593 11.6407C37.5786 10.86 36.5207 10.42 35.4167 10.4167H31.25V6.25H27.0833V10.4167H22.9167V6.25H18.75V10.4167H14.5833C13.4793 10.42 12.4214 10.86 11.6407 11.6407C10.86 12.4214 10.42 13.4793 10.4167 14.5833V18.75H6.25V22.9167H10.4167V27.0833H6.25V31.25H10.4167V35.4167C10.42 36.5207 10.86 37.5786 11.6407 38.3593C12.4214 39.14 13.4793 39.58 14.5833 39.5833H18.75V43.75H22.9167V39.5833H27.0833V43.75H31.25V39.5833H35.4167C36.5207 39.58 37.5786 39.14 38.3593 38.3593C39.14 37.5786 39.58 36.5207 39.5833 35.4167V31.25H43.75V27.0833H39.5833V22.9167H43.75ZM35.4167 35.4167H14.5833V14.5833H35.4167V35.4167Z" fill="white"/>
  <path d="M23.6688 16.6665H20.8667L16.6792 33.3332H18.8188L19.7854 29.4269H24.6104L25.5521 33.3332H27.7646L23.6688 16.6665ZM20.0667 27.7582L22.1875 18.6457H22.2834L24.3313 27.7582H20.0667ZM29.675 16.6665H31.7584V33.3332H29.675V16.6665Z" fill="white"/>
</svg>